<svg width="259" height="24" viewBox="0 0 259 24" fill="none" xmlns="http://www.w3.org/2000/svg">
<path d="M6.45601 4.92V9.464H13.784V13.688H6.45601V18.616H14.744V23H0.984009V0.536003H14.744V4.92H6.45601Z" fill="#020441"/>
<path d="M29.7525 23L25.0805 14.52H23.7685V23H18.2965V0.536003H27.4805C29.2512 0.536003 30.7552 0.845336 31.9925 1.464C33.2512 2.08267 34.1898 2.936 34.8085 4.024C35.4272 5.09067 35.7365 6.28534 35.7365 7.608C35.7365 9.10134 35.3098 10.4347 34.4565 11.608C33.6245 12.7813 32.3872 13.6133 30.7445 14.104L35.9285 23H29.7525ZM23.7685 10.648H27.1605C28.1632 10.648 28.9098 10.4027 29.4005 9.912C29.9125 9.42134 30.1685 8.728 30.1685 7.832C30.1685 6.97867 29.9125 6.30667 29.4005 5.816C28.9098 5.32534 28.1632 5.08 27.1605 5.08H23.7685V10.648Z" fill="#020441"/>
<path d="M44.6435 0.536003V23H39.1715V0.536003H44.6435Z" fill="#020441"/>
<path d="M59.233 23.224C57.121 23.224 55.1797 22.7333 53.409 21.752C51.6597 20.7707 50.2623 19.4053 49.217 17.656C48.193 15.8853 47.681 13.9013 47.681 11.704C47.681 9.50667 48.193 7.53334 49.217 5.784C50.2623 4.03467 51.6597 2.66934 53.409 1.688C55.1797 0.70667 57.121 0.216003 59.233 0.216003C61.345 0.216003 63.2757 0.70667 65.025 1.688C66.7957 2.66934 68.1823 4.03467 69.185 5.784C70.209 7.53334 70.721 9.50667 70.721 11.704C70.721 13.9013 70.209 15.8853 69.185 17.656C68.161 19.4053 66.7743 20.7707 65.025 21.752C63.2757 22.7333 61.345 23.224 59.233 23.224ZM59.233 18.232C61.025 18.232 62.4543 17.6347 63.521 16.44C64.609 15.2453 65.153 13.6667 65.153 11.704C65.153 9.72 64.609 8.14134 63.521 6.968C62.4543 5.77334 61.025 5.176 59.233 5.176C57.4197 5.176 55.969 5.76267 54.881 6.936C53.8143 8.10934 53.281 9.69867 53.281 11.704C53.281 13.688 53.8143 15.2773 54.881 16.472C55.969 17.6453 57.4197 18.232 59.233 18.232Z" fill="#020441"/>
<path d="M93.8613 23H88.3893L79.2373 9.144V23H73.7653V0.536003H79.2373L88.3893 14.456V0.536003H93.8613V23Z" fill="#020441"/>
<path d="M112.737 23.224C111.094 23.224 109.622 22.9573 108.321 22.424C107.02 21.8907 105.974 21.1013 105.185 20.056C104.417 19.0107 104.012 17.752 103.969 16.28H109.793C109.878 17.112 110.166 17.752 110.657 18.2C111.148 18.6267 111.788 18.84 112.577 18.84C113.388 18.84 114.028 18.6587 114.497 18.296C114.966 17.912 115.201 17.3893 115.201 16.728C115.201 16.1733 115.009 15.7147 114.625 15.352C114.262 14.9893 113.804 14.6907 113.249 14.456C112.716 14.2213 111.948 13.9547 110.945 13.656C109.494 13.208 108.31 12.76 107.393 12.312C106.476 11.864 105.686 11.2027 105.025 10.328C104.364 9.45334 104.033 8.312 104.033 6.904C104.033 4.81334 104.79 3.18134 106.305 2.008C107.82 0.813337 109.793 0.216003 112.225 0.216003C114.7 0.216003 116.694 0.813337 118.209 2.008C119.724 3.18134 120.534 4.824 120.641 6.936H114.721C114.678 6.21067 114.412 5.64534 113.921 5.24C113.43 4.81334 112.801 4.6 112.033 4.6C111.372 4.6 110.838 4.78134 110.433 5.144C110.028 5.48534 109.825 5.98667 109.825 6.648C109.825 7.37334 110.166 7.93867 110.849 8.344C111.532 8.74934 112.598 9.18667 114.049 9.656C115.5 10.1467 116.673 10.616 117.569 11.064C118.486 11.512 119.276 12.1627 119.937 13.016C120.598 13.8693 120.929 14.968 120.929 16.312C120.929 17.592 120.598 18.7547 119.937 19.8C119.297 20.8453 118.358 21.6773 117.121 22.296C115.884 22.9147 114.422 23.224 112.737 23.224Z" fill="#020441"/>
<path d="M129.769 0.536003V23H124.297V0.536003H129.769Z" fill="#020441"/>
<path d="M141.862 23.224C140.219 23.224 138.747 22.9573 137.446 22.424C136.145 21.8907 135.099 21.1013 134.31 20.056C133.542 19.0107 133.137 17.752 133.094 16.28H138.918C139.003 17.112 139.291 17.752 139.782 18.2C140.273 18.6267 140.913 18.84 141.702 18.84C142.513 18.84 143.153 18.6587 143.622 18.296C144.091 17.912 144.326 17.3893 144.326 16.728C144.326 16.1733 144.134 15.7147 143.75 15.352C143.387 14.9893 142.929 14.6907 142.374 14.456C141.841 14.2213 141.073 13.9547 140.07 13.656C138.619 13.208 137.435 12.76 136.518 12.312C135.601 11.864 134.811 11.2027 134.15 10.328C133.489 9.45334 133.158 8.312 133.158 6.904C133.158 4.81334 133.915 3.18134 135.43 2.008C136.945 0.813337 138.918 0.216003 141.35 0.216003C143.825 0.216003 145.819 0.813337 147.334 2.008C148.849 3.18134 149.659 4.824 149.766 6.936H143.846C143.803 6.21067 143.537 5.64534 143.046 5.24C142.555 4.81334 141.926 4.6 141.158 4.6C140.497 4.6 139.963 4.78134 139.558 5.144C139.153 5.48534 138.95 5.98667 138.95 6.648C138.95 7.37334 139.291 7.93867 139.974 8.344C140.657 8.74934 141.723 9.18667 143.174 9.656C144.625 10.1467 145.798 10.616 146.694 11.064C147.611 11.512 148.401 12.1627 149.062 13.016C149.723 13.8693 150.054 14.968 150.054 16.312C150.054 17.592 149.723 18.7547 149.062 19.8C148.422 20.8453 147.483 21.6773 146.246 22.296C145.009 22.9147 143.547 23.224 141.862 23.224Z" fill="#020441"/>
<path d="M169.582 0.536003V4.92H163.63V23H158.158V4.92H152.206V0.536003H169.582Z" fill="#020441"/>
<path d="M177.8 4.92V9.464H185.128V13.688H177.8V18.616H186.088V23H172.328V0.536003H186.088V4.92H177.8Z" fill="#020441"/>
<path d="M215.08 0.536003V23H209.608V9.528L204.584 23H200.168L195.112 9.496V23H189.64V0.536003H196.104L202.408 16.088L208.648 0.536003H215.08Z" fill="#020441"/>
<path d="M232.999 19.032H224.615L223.271 23H217.543L225.671 0.536003H232.007L240.135 23H234.343L232.999 19.032ZM231.591 14.808L228.807 6.584L226.055 14.808H231.591Z" fill="#020441"/>
<path d="M250.737 23.224C249.094 23.224 247.622 22.9573 246.321 22.424C245.02 21.8907 243.974 21.1013 243.185 20.056C242.417 19.0107 242.012 17.752 241.969 16.28H247.793C247.878 17.112 248.166 17.752 248.657 18.2C249.148 18.6267 249.788 18.84 250.577 18.84C251.388 18.84 252.028 18.6587 252.497 18.296C252.966 17.912 253.201 17.3893 253.201 16.728C253.201 16.1733 253.009 15.7147 252.625 15.352C252.262 14.9893 251.804 14.6907 251.249 14.456C250.716 14.2213 249.948 13.9547 248.945 13.656C247.494 13.208 246.31 12.76 245.393 12.312C244.476 11.864 243.686 11.2027 243.025 10.328C242.364 9.45334 242.033 8.312 242.033 6.904C242.033 4.81334 242.79 3.18134 244.305 2.008C245.82 0.813337 247.793 0.216003 250.225 0.216003C252.7 0.216003 254.694 0.813337 256.209 2.008C257.724 3.18134 258.534 4.824 258.641 6.936H252.721C252.678 6.21067 252.412 5.64534 251.921 5.24C251.43 4.81334 250.801 4.6 250.033 4.6C249.372 4.6 248.838 4.78134 248.433 5.144C248.028 5.48534 247.825 5.98667 247.825 6.648C247.825 7.37334 248.166 7.93867 248.849 8.344C249.532 8.74934 250.598 9.18667 252.049 9.656C253.5 10.1467 254.673 10.616 255.569 11.064C256.486 11.512 257.276 12.1627 257.937 13.016C258.598 13.8693 258.929 14.968 258.929 16.312C258.929 17.592 258.598 18.7547 257.937 19.8C257.297 20.8453 256.358 21.6773 255.121 22.296C253.884 22.9147 252.422 23.224 250.737 23.224Z" fill="#020441"/>
</svg>
