<svg width="258" height="23" viewBox="0 0 258 23" fill="none" xmlns="http://www.w3.org/2000/svg">
<path d="M5.472 4.704V9.248H12.8V13.472H5.472V18.4H13.76V22.784H0V0.32H13.76V4.704H5.472Z" fill="white"/>
<path d="M28.7685 22.784L24.0965 14.304H22.7845V22.784H17.3125V0.32H26.4965C28.2672 0.32 29.7712 0.629333 31.0085 1.248C32.2672 1.86667 33.2058 2.72 33.8245 3.808C34.4432 4.87467 34.7525 6.06933 34.7525 7.392C34.7525 8.88533 34.3258 10.2187 33.4725 11.392C32.6405 12.5653 31.4032 13.3973 29.7605 13.888L34.9445 22.784H28.7685ZM22.7845 10.432H26.1765C27.1792 10.432 27.9258 10.1867 28.4165 9.696C28.9285 9.20533 29.1845 8.512 29.1845 7.616C29.1845 6.76267 28.9285 6.09067 28.4165 5.6C27.9258 5.10933 27.1792 4.864 26.1765 4.864H22.7845V10.432Z" fill="white"/>
<path d="M43.6595 0.32V22.784H38.1875V0.32H43.6595Z" fill="white"/>
<path d="M58.249 23.008C56.137 23.008 54.1957 22.5173 52.425 21.536C50.6757 20.5547 49.2783 19.1893 48.233 17.44C47.209 15.6693 46.697 13.6853 46.697 11.488C46.697 9.29067 47.209 7.31733 48.233 5.568C49.2783 3.81867 50.6757 2.45333 52.425 1.472C54.1957 0.490667 56.137 0 58.249 0C60.361 0 62.2917 0.490667 64.041 1.472C65.8117 2.45333 67.1983 3.81867 68.201 5.568C69.225 7.31733 69.737 9.29067 69.737 11.488C69.737 13.6853 69.225 15.6693 68.201 17.44C67.177 19.1893 65.7903 20.5547 64.041 21.536C62.2917 22.5173 60.361 23.008 58.249 23.008ZM58.249 18.016C60.041 18.016 61.4703 17.4187 62.537 16.224C63.625 15.0293 64.169 13.4507 64.169 11.488C64.169 9.504 63.625 7.92533 62.537 6.752C61.4703 5.55733 60.041 4.96 58.249 4.96C56.4357 4.96 54.985 5.54667 53.897 6.72C52.8303 7.89333 52.297 9.48267 52.297 11.488C52.297 13.472 52.8303 15.0613 53.897 16.256C54.985 17.4293 56.4357 18.016 58.249 18.016Z" fill="white"/>
<path d="M92.8773 22.784H87.4053L78.2533 8.928V22.784H72.7812V0.32H78.2533L87.4053 14.24V0.32H92.8773V22.784Z" fill="white"/>
<path d="M111.753 23.008C110.11 23.008 108.638 22.7413 107.337 22.208C106.036 21.6747 104.99 20.8853 104.201 19.84C103.433 18.7947 103.028 17.536 102.985 16.064H108.809C108.894 16.896 109.182 17.536 109.673 17.984C110.164 18.4107 110.804 18.624 111.593 18.624C112.404 18.624 113.044 18.4427 113.513 18.08C113.982 17.696 114.217 17.1733 114.217 16.512C114.217 15.9573 114.025 15.4987 113.641 15.136C113.278 14.7733 112.82 14.4747 112.265 14.24C111.732 14.0053 110.964 13.7387 109.961 13.44C108.51 12.992 107.326 12.544 106.409 12.096C105.492 11.648 104.702 10.9867 104.041 10.112C103.38 9.23733 103.049 8.096 103.049 6.688C103.049 4.59733 103.806 2.96533 105.321 1.792C106.836 0.597333 108.809 0 111.241 0C113.716 0 115.71 0.597333 117.225 1.792C118.74 2.96533 119.55 4.608 119.657 6.72H113.737C113.694 5.99467 113.428 5.42933 112.937 5.024C112.446 4.59733 111.817 4.384 111.049 4.384C110.388 4.384 109.854 4.56533 109.449 4.928C109.044 5.26933 108.841 5.77067 108.841 6.432C108.841 7.15733 109.182 7.72267 109.865 8.128C110.548 8.53333 111.614 8.97067 113.065 9.44C114.516 9.93067 115.689 10.4 116.585 10.848C117.502 11.296 118.292 11.9467 118.953 12.8C119.614 13.6533 119.945 14.752 119.945 16.096C119.945 17.376 119.614 18.5387 118.953 19.584C118.313 20.6293 117.374 21.4613 116.137 22.08C114.9 22.6987 113.438 23.008 111.753 23.008Z" fill="white"/>
<path d="M128.785 0.32V22.784H123.312V0.32H128.785Z" fill="white"/>
<path d="M140.878 23.008C139.235 23.008 137.763 22.7413 136.462 22.208C135.161 21.6747 134.115 20.8853 133.326 19.84C132.558 18.7947 132.153 17.536 132.11 16.064H137.934C138.019 16.896 138.307 17.536 138.798 17.984C139.289 18.4107 139.929 18.624 140.718 18.624C141.529 18.624 142.169 18.4427 142.638 18.08C143.107 17.696 143.342 17.1733 143.342 16.512C143.342 15.9573 143.15 15.4987 142.766 15.136C142.403 14.7733 141.945 14.4747 141.39 14.24C140.857 14.0053 140.089 13.7387 139.086 13.44C137.635 12.992 136.451 12.544 135.534 12.096C134.617 11.648 133.827 10.9867 133.166 10.112C132.505 9.23733 132.174 8.096 132.174 6.688C132.174 4.59733 132.931 2.96533 134.446 1.792C135.961 0.597333 137.934 0 140.366 0C142.841 0 144.835 0.597333 146.35 1.792C147.865 2.96533 148.675 4.608 148.782 6.72H142.862C142.819 5.99467 142.553 5.42933 142.062 5.024C141.571 4.59733 140.942 4.384 140.174 4.384C139.513 4.384 138.979 4.56533 138.574 4.928C138.169 5.26933 137.966 5.77067 137.966 6.432C137.966 7.15733 138.307 7.72267 138.99 8.128C139.673 8.53333 140.739 8.97067 142.19 9.44C143.641 9.93067 144.814 10.4 145.71 10.848C146.627 11.296 147.417 11.9467 148.078 12.8C148.739 13.6533 149.07 14.752 149.07 16.096C149.07 17.376 148.739 18.5387 148.078 19.584C147.438 20.6293 146.499 21.4613 145.262 22.08C144.025 22.6987 142.563 23.008 140.878 23.008Z" fill="white"/>
<path d="M168.598 0.32V4.704H162.646V22.784H157.174V4.704H151.221V0.32H168.598Z" fill="white"/>
<path d="M176.816 4.704V9.248H184.144V13.472H176.816V18.4H185.104V22.784H171.344V0.32H185.104V4.704H176.816Z" fill="white"/>
<path d="M214.096 0.32V22.784H208.624V9.312L203.6 22.784H199.184L194.128 9.28V22.784H188.656V0.32H195.12L201.424 15.872L207.664 0.32H214.096Z" fill="white"/>
<path d="M232.015 18.816H223.631L222.287 22.784H216.559L224.687 0.32H231.023L239.151 22.784H233.359L232.015 18.816ZM230.607 14.592L227.823 6.368L225.071 14.592H230.607Z" fill="white"/>
<path d="M249.753 23.008C248.11 23.008 246.638 22.7413 245.337 22.208C244.036 21.6747 242.99 20.8853 242.201 19.84C241.433 18.7947 241.028 17.536 240.985 16.064H246.809C246.894 16.896 247.182 17.536 247.673 17.984C248.164 18.4107 248.804 18.624 249.593 18.624C250.404 18.624 251.044 18.4427 251.513 18.08C251.982 17.696 252.217 17.1733 252.217 16.512C252.217 15.9573 252.025 15.4987 251.641 15.136C251.278 14.7733 250.82 14.4747 250.265 14.24C249.732 14.0053 248.964 13.7387 247.961 13.44C246.51 12.992 245.326 12.544 244.409 12.096C243.492 11.648 242.702 10.9867 242.041 10.112C241.38 9.23733 241.049 8.096 241.049 6.688C241.049 4.59733 241.806 2.96533 243.321 1.792C244.836 0.597333 246.809 0 249.241 0C251.716 0 253.71 0.597333 255.225 1.792C256.74 2.96533 257.55 4.608 257.657 6.72H251.737C251.694 5.99467 251.428 5.42933 250.937 5.024C250.446 4.59733 249.817 4.384 249.049 4.384C248.388 4.384 247.854 4.56533 247.449 4.928C247.044 5.26933 246.841 5.77067 246.841 6.432C246.841 7.15733 247.182 7.72267 247.865 8.128C248.548 8.53333 249.614 8.97067 251.065 9.44C252.516 9.93067 253.689 10.4 254.585 10.848C255.502 11.296 256.292 11.9467 256.953 12.8C257.614 13.6533 257.945 14.752 257.945 16.096C257.945 17.376 257.614 18.5387 256.953 19.584C256.313 20.6293 255.374 21.4613 254.137 22.08C252.9 22.6987 251.438 23.008 249.753 23.008Z" fill="white"/>
</svg>
