<svg width="32" height="26" viewBox="0 0 32 26" fill="none" xmlns="http://www.w3.org/2000/svg">
<g clip-path="url(#clip0_28_149)">
<path d="M3.19995 23.2V15.845C3.19995 10.425 6.61495 5.59003 11.725 3.78003L20.21 0.775026C21.28 0.395026 22.4 1.19003 22.4 2.32003C22.4 2.87003 22.125 3.38003 21.67 3.68503L20 4.80003C22.4049 4.80003 24.5599 6.29003 25.405 8.54503L27.8349 15.02C28.4249 16.59 28.0399 18.36 26.8549 19.545C26.0549 20.345 24.965 20.8 23.83 20.8H23.66C22.3549 20.8 21.115 20.22 20.28 19.215L18.6649 17.28C18.0799 17.485 17.455 17.6 16.8 17.6H16.795C16.4799 17.6 16.1699 17.575 15.865 17.525C15.6849 17.495 15.505 17.455 15.33 17.41C13.885 17.02 12.675 16.07 11.94 14.8C11.72 14.42 11.2299 14.285 10.845 14.51C10.46 14.735 10.33 15.22 10.555 15.605C11.755 17.68 13.97 19.105 16.5199 19.2L18.88 22.74C19.08 23.045 19.1899 23.4 19.1899 23.76C19.1899 24.775 18.365 25.6 17.35 25.6H5.59995C4.27495 25.6 3.19995 24.525 3.19995 23.2ZM19.6 11.2C19.7575 11.2 19.9136 11.169 20.0592 11.1087C20.2048 11.0484 20.337 10.96 20.4485 10.8486C20.5599 10.7371 20.6483 10.6048 20.7086 10.4592C20.7689 10.3137 20.7999 10.1576 20.7999 10C20.7999 9.84244 20.7689 9.6864 20.7086 9.54081C20.6483 9.39522 20.5599 9.26293 20.4485 9.1515C20.337 9.04007 20.2048 8.95168 20.0592 8.89137C19.9136 8.83107 19.7575 8.80003 19.6 8.80003C19.4424 8.80003 19.2863 8.83107 19.1407 8.89137C18.9951 8.95168 18.8629 9.04007 18.7514 9.1515C18.64 9.26293 18.5516 9.39522 18.4913 9.54081C18.431 9.6864 18.4 9.84244 18.4 10C18.4 10.1576 18.431 10.3137 18.4913 10.4592C18.5516 10.6048 18.64 10.7371 18.7514 10.8486C18.8629 10.96 18.9951 11.0484 19.1407 11.1087C19.2863 11.169 19.4424 11.2 19.6 11.2Z" fill="#004FFF"/>
</g>
<defs>
<clipPath id="clip0_28_149">
<rect width="32" height="25.6" fill="white"/>
</clipPath>
</defs>
</svg>
