<svg width="32" height="26" viewBox="0 0 32 26" fill="none" xmlns="http://www.w3.org/2000/svg">
<g clip-path="url(#clip0_28_145)">
<path d="M1.84 9.6H30.16C31.175 9.6 32 8.775 32 7.76C32 7.395 31.89 7.04 31.69 6.74L27.91 1.07C27.465 0.4 26.72 0 25.915 0H6.085C5.285 0 4.535 0.4 4.09 1.07L0.31 6.735C0.11 7.04 0 7.395 0 7.755C0 8.775 0.825 9.6 1.84 9.6ZM3.2 11.2V19.2V23.2C3.2 24.525 4.275 25.6 5.6 25.6H16.8C18.125 25.6 19.2 24.525 19.2 23.2V19.2V11.2H16V19.2H6.4V11.2H3.2ZM25.6 11.2V24C25.6 24.885 26.315 25.6 27.2 25.6C28.085 25.6 28.8 24.885 28.8 24V11.2H25.6Z" fill="#004FFF"/>
</g>
<defs>
<clipPath id="clip0_28_145">
<rect width="32" height="25.6" fill="white"/>
</clipPath>
</defs>
</svg>
