<svg width="32" height="32" viewBox="0 0 32 32" fill="none" xmlns="http://www.w3.org/2000/svg">
<g clip-path="url(#clip0_28_155)">
<path d="M15.05 0.300019C15.6438 0.662519 16 1.30627 16 2.00002V6.50002H21.5625C21.7875 5.63752 22.5688 5.00002 23.5 5.00002H29C30.6562 5.00002 32 6.34377 32 8.00002C32 9.65627 30.6562 11 29 11H23.5C22.5688 11 21.7875 10.3625 21.5625 9.50002H16V14C16 14.6938 15.6438 15.3375 15.05 15.7C14.4563 16.0625 13.725 16.1 13.1062 15.7875L1.10625 9.78752C0.425 9.45002 0 8.75627 0 8.00002C0 7.24377 0.425 6.55002 1.10625 6.21252L13.1062 0.212519C13.725 -0.0999808 14.4625 -0.0624808 15.05 0.300019ZM18 16C18 14.8938 18.8937 14 20 14H30C31.1063 14 32 14.8938 32 16V20C32 21.1063 31.1063 22 30 22H20C18.8937 22 18 21.1063 18 20V16ZM2 24H8C9.10625 24 10 24.8938 10 26V30C10 31.1063 9.10625 32 8 32H2C0.89375 32 0 31.1063 0 30V26C0 24.8938 0.89375 24 2 24ZM14 24H30C31.1063 24 32 24.8938 32 26V30C32 31.1063 31.1063 32 30 32H14C12.8938 32 12 31.1063 12 30V26C12 24.8938 12.8938 24 14 24Z" fill="#004FFF"/>
</g>
<defs>
<clipPath id="clip0_28_155">
<rect width="32" height="32" fill="white"/>
</clipPath>
</defs>
</svg>
