<svg width="32" height="32" viewBox="0 0 32 32" fill="none" xmlns="http://www.w3.org/2000/svg">
<path d="M8.45 7.3375L6.81875 12H25.1812L23.55 7.3375C23.2687 6.5375 22.5125 6 21.6625 6H10.3375C9.4875 6 8.73125 6.5375 8.45 7.3375ZM2.475 12.3L4.675 6.01875C5.51875 3.6125 7.7875 2 10.3375 2H21.6625C24.2125 2 26.4813 3.6125 27.325 6.01875L29.525 12.3C30.975 12.9 32 14.3313 32 16V25V28C32 29.1063 31.1063 30 30 30H28C26.8937 30 26 29.1063 26 28V25H6V28C6 29.1063 5.10625 30 4 30H2C0.89375 30 0 29.1063 0 28V25V16C0 14.3313 1.025 12.9 2.475 12.3ZM8 18C8 17.4696 7.78929 16.9609 7.41421 16.5858C7.03914 16.2107 6.53043 16 6 16C5.46957 16 4.96086 16.2107 4.58579 16.5858C4.21071 16.9609 4 17.4696 4 18C4 18.5304 4.21071 19.0391 4.58579 19.4142C4.96086 19.7893 5.46957 20 6 20C6.53043 20 7.03914 19.7893 7.41421 19.4142C7.78929 19.0391 8 18.5304 8 18ZM26 20C26.5304 20 27.0391 19.7893 27.4142 19.4142C27.7893 19.0391 28 18.5304 28 18C28 17.4696 27.7893 16.9609 27.4142 16.5858C27.0391 16.2107 26.5304 16 26 16C25.4696 16 24.9609 16.2107 24.5858 16.5858C24.2107 16.9609 24 17.4696 24 18C24 18.5304 24.2107 19.0391 24.5858 19.4142C24.9609 19.7893 25.4696 20 26 20Z" fill="#004FFF"/>
</svg>
