<svg width="32" height="37" viewBox="0 0 32 37" fill="none" xmlns="http://www.w3.org/2000/svg">
<g clip-path="url(#clip0_28_135)">
<path d="M24.9571 3.18563C25.3785 2.20706 25.0642 1.0642 24.2 0.435628C23.3357 -0.192943 22.1571 -0.135801 21.35 0.5642L3.06425 16.5642C2.34996 17.1928 2.09282 18.1999 2.42853 19.0856C2.76425 19.9713 3.62139 20.5713 4.57139 20.5713H12.5357L7.04282 33.3856C6.62139 34.3642 6.93568 35.5071 7.79996 36.1356C8.66425 36.7642 9.84282 36.7071 10.65 36.0071L28.9357 20.0071C29.65 19.3785 29.9071 18.3713 29.5714 17.4856C29.2357 16.5999 28.3857 16.0071 27.4285 16.0071H19.4642L24.9571 3.18563Z" fill="#004FFF"/>
</g>
<defs>
<clipPath id="clip0_28_135">
<rect width="32" height="36.5714" fill="white"/>
</clipPath>
</defs>
</svg>
