<svg width="32" height="29" viewBox="0 0 32 29" fill="none" xmlns="http://www.w3.org/2000/svg">
<g clip-path="url(#clip0_28_143)">
<path d="M7.91117 1.21678C8.22228 2.15011 7.71672 3.15567 6.78894 3.46678L5.33339 3.95011V10.6668C5.33339 13.6112 7.72228 16.0001 10.6667 16.0001C13.6112 16.0001 16.0001 13.6112 16.0001 10.6668V3.95011L14.5501 3.46678C13.6167 3.15567 13.1167 2.15011 13.4278 1.21678C13.7389 0.283445 14.7445 -0.216555 15.6778 0.094556L17.1278 0.577889C18.5778 1.06122 19.5556 2.41678 19.5556 3.95011V10.6668C19.5556 14.9557 16.5223 18.5334 12.4834 19.3723C12.8334 22.4779 15.4667 24.889 18.6667 24.889C22.1056 24.889 24.8889 22.1057 24.8889 18.6668V14.739C23.3167 14.0557 22.2223 12.489 22.2223 10.6668C22.2223 8.21122 24.2112 6.22233 26.6667 6.22233C29.1223 6.22233 31.1112 8.21122 31.1112 10.6668C31.1112 12.489 30.0167 14.0557 28.4445 14.739V18.6668C28.4445 24.0668 24.0667 28.4446 18.6667 28.4446C13.5056 28.4446 9.28339 24.4501 8.91672 19.3834C4.8445 18.5668 1.77783 14.9779 1.77783 10.6668V3.95011C1.77783 2.42233 2.75561 1.06122 4.21117 0.577889L5.66117 0.094556C6.5945 -0.216555 7.60005 0.289 7.91117 1.21678ZM26.6667 12.4446C27.1382 12.4446 27.5904 12.2573 27.9238 11.9239C28.2572 11.5905 28.4445 11.1383 28.4445 10.6668C28.4445 10.1953 28.2572 9.7431 27.9238 9.4097C27.5904 9.0763 27.1382 8.889 26.6667 8.889C26.1952 8.889 25.743 9.0763 25.4096 9.4097C25.0762 9.7431 24.8889 10.1953 24.8889 10.6668C24.8889 11.1383 25.0762 11.5905 25.4096 11.9239C25.743 12.2573 26.1952 12.4446 26.6667 12.4446Z" fill="#004FFF"/>
</g>
<defs>
<clipPath id="clip0_28_143">
<rect width="32" height="28.4444" fill="white"/>
</clipPath>
</defs>
</svg>
