<svg width="32" height="26" viewBox="0 0 32 26" fill="none" xmlns="http://www.w3.org/2000/svg">
<path d="M4.8 3.2001C4.8 2.3151 5.515 1.6001 6.4 1.6001H22.4H25.6C29.135 1.6001 32 4.4651 32 8.0001C32 11.5351 29.135 14.4001 25.6 14.4001H24C24 17.0501 21.85 19.2001 19.2 19.2001H9.6C6.95 19.2001 4.8 17.0501 4.8 14.4001V3.2001ZM24 11.2001H25.6C27.365 11.2001 28.8 9.7651 28.8 8.0001C28.8 6.2351 27.365 4.8001 25.6 4.8001H24V11.2001ZM1.6 20.8001H27.2C28.085 20.8001 28.8 21.5151 28.8 22.4001C28.8 23.2851 28.085 24.0001 27.2 24.0001H1.6C0.715 24.0001 0 23.2851 0 22.4001C0 21.5151 0.715 20.8001 1.6 20.8001Z" fill="#004FFF"/>
</svg>
