<svg width="32" height="37" viewBox="0 0 32 37" fill="none" xmlns="http://www.w3.org/2000/svg">
<g clip-path="url(#clip0_28_151)">
<path d="M6.85714 0C3.07143 0 0 3.07143 0 6.85714V29.7143C0 33.5 3.07143 36.5714 6.85714 36.5714H27.4286H29.7143C30.9786 36.5714 32 35.55 32 34.2857C32 33.0214 30.9786 32 29.7143 32V27.4286C30.9786 27.4286 32 26.4071 32 25.1429V2.28571C32 1.02143 30.9786 0 29.7143 0H27.4286H6.85714ZM6.85714 27.4286H25.1429V32H6.85714C5.59286 32 4.57143 30.9786 4.57143 29.7143C4.57143 28.45 5.59286 27.4286 6.85714 27.4286ZM9.14286 10.2857C9.14286 9.65714 9.65714 9.14286 10.2857 9.14286H24C24.6286 9.14286 25.1429 9.65714 25.1429 10.2857C25.1429 10.9143 24.6286 11.4286 24 11.4286H10.2857C9.65714 11.4286 9.14286 10.9143 9.14286 10.2857ZM10.2857 13.7143H24C24.6286 13.7143 25.1429 14.2286 25.1429 14.8571C25.1429 15.4857 24.6286 16 24 16H10.2857C9.65714 16 9.14286 15.4857 9.14286 14.8571C9.14286 14.2286 9.65714 13.7143 10.2857 13.7143Z" fill="#004FFF"/>
</g>
<defs>
<clipPath id="clip0_28_151">
<rect width="32" height="36.5714" fill="white"/>
</clipPath>
</defs>
</svg>
