<svg width="32" height="26" viewBox="0 0 32 26" fill="none" xmlns="http://www.w3.org/2000/svg">
<g clip-path="url(#clip0_28_147)">
<path d="M10.5902 0C10.9802 0 11.3052 0.285 11.4252 0.66C12.0402 2.595 13.8552 4 16.0002 4C18.1452 4 19.9602 2.595 20.5752 0.66C20.6952 0.285 21.0202 0 21.4102 0H22.0402C23.1652 0 24.2502 0.395 25.1152 1.115L31.4252 6.37C31.7552 6.645 31.9602 7.045 31.9952 7.475C32.0302 7.905 31.8902 8.33 31.6052 8.655L28.8052 11.855C28.2352 12.51 27.2452 12.585 26.5752 12.03L24.0002 9.885V22.4C24.0002 24.165 22.5652 25.6 20.8002 25.6H11.2002C9.43516 25.6 8.00016 24.165 8.00016 22.4V9.885L5.42516 12.03C4.76016 12.585 3.77016 12.51 3.19516 11.855L0.395158 8.655C0.110158 8.33 -0.0298417 7.905 0.00515832 7.475C0.0401583 7.045 0.245158 6.645 0.575158 6.37L6.88516 1.115C7.75016 0.395 8.83516 0 9.96016 0H10.5902Z" fill="#004FFF"/>
</g>
<defs>
<clipPath id="clip0_28_147">
<rect width="32" height="25.6" fill="white"/>
</clipPath>
</defs>
</svg>
