<svg width="32" height="32" viewBox="0 0 32 32" fill="none" xmlns="http://www.w3.org/2000/svg">
<g clip-path="url(#clip0_30_157)">
<path d="M16 12L13.5312 9.53125C13.8375 8.74375 14 7.89375 14 7C14 3.13125 10.8687 0 7 0C3.13125 0 0 3.13125 0 7C0 10.8687 3.13125 14 7 14C7.89375 14 8.74375 13.8313 9.53125 13.5312L12 16L9.53125 18.4688C8.74375 18.1625 7.89375 18 7 18C3.13125 18 0 21.1313 0 25C0 28.8687 3.13125 32 7 32C10.8687 32 14 28.8687 14 25C14 24.1063 13.8312 23.2563 13.5312 22.4688L31.2 4.8C31.6437 4.35625 31.6437 3.64375 31.2 3.2C29.4312 1.43125 26.5687 1.43125 24.8 3.2L16 12ZM17.4125 21.4125L24.8 28.8C26.5687 30.5687 29.4312 30.5687 31.2 28.8C31.6437 28.3562 31.6437 27.6438 31.2 27.2L21.4125 17.4125L17.4125 21.4125ZM4 7C4 6.60603 4.0776 6.21593 4.22836 5.85195C4.37913 5.48797 4.6001 5.15726 4.87868 4.87868C5.15726 4.6001 5.48797 4.37913 5.85195 4.22836C6.21593 4.0776 6.60603 4 7 4C7.39397 4 7.78407 4.0776 8.14805 4.22836C8.51203 4.37913 8.84274 4.6001 9.12132 4.87868C9.3999 5.15726 9.62087 5.48797 9.77164 5.85195C9.9224 6.21593 10 6.60603 10 7C10 7.39397 9.9224 7.78407 9.77164 8.14805C9.62087 8.51203 9.3999 8.84274 9.12132 9.12132C8.84274 9.3999 8.51203 9.62087 8.14805 9.77164C7.78407 9.9224 7.39397 10 7 10C6.60603 10 6.21593 9.9224 5.85195 9.77164C5.48797 9.62087 5.15726 9.3999 4.87868 9.12132C4.6001 8.84274 4.37913 8.51203 4.22836 8.14805C4.0776 7.78407 4 7.39397 4 7ZM7 22C7.39397 22 7.78407 22.0776 8.14805 22.2284C8.51203 22.3791 8.84274 22.6001 9.12132 22.8787C9.3999 23.1573 9.62087 23.488 9.77164 23.8519C9.9224 24.2159 10 24.606 10 25C10 25.394 9.9224 25.7841 9.77164 26.1481C9.62087 26.512 9.3999 26.8427 9.12132 27.1213C8.84274 27.3999 8.51203 27.6209 8.14805 27.7716C7.78407 27.9224 7.39397 28 7 28C6.60603 28 6.21593 27.9224 5.85195 27.7716C5.48797 27.6209 5.15726 27.3999 4.87868 27.1213C4.6001 26.8427 4.37913 26.512 4.22836 26.1481C4.0776 25.7841 4 25.394 4 25C4 24.606 4.0776 24.2159 4.22836 23.8519C4.37913 23.488 4.6001 23.1573 4.87868 22.8787C5.15726 22.6001 5.48797 22.3791 5.85195 22.2284C6.21593 22.0776 6.60603 22 7 22Z" fill="#004FFF"/>
</g>
<defs>
<clipPath id="clip0_30_157">
<rect width="32" height="32" fill="white"/>
</clipPath>
</defs>
</svg>
