<svg width="157" height="118" viewBox="0 0 157 118" fill="none" xmlns="http://www.w3.org/2000/svg">
<rect width="157" height="118" rx="20" fill="white" fill-opacity="0.95"/>
<path d="M69.9903 22.6016V34H67.7403V25.1953L65.0372 26.0547V24.2812L69.7481 22.6016H69.9903ZM81.3897 27.3125V29.2812C81.3897 30.1354 81.2985 30.8724 81.1162 31.4922C80.934 32.1068 80.6709 32.612 80.3272 33.0078C79.9886 33.3984 79.585 33.6875 79.1162 33.875C78.6475 34.0625 78.1267 34.1562 77.5537 34.1562C77.0954 34.1562 76.6683 34.099 76.2725 33.9844C75.8767 33.8646 75.5199 33.6797 75.2022 33.4297C74.8897 33.1797 74.6189 32.8646 74.3897 32.4844C74.1657 32.099 73.9939 31.6406 73.8741 31.1094C73.7543 30.5781 73.6944 29.9688 73.6944 29.2812V27.3125C73.6944 26.4583 73.7855 25.7266 73.9678 25.1172C74.1553 24.5026 74.4183 24 74.7569 23.6094C75.1006 23.2188 75.5069 22.9323 75.9756 22.75C76.4444 22.5625 76.9652 22.4688 77.5381 22.4688C77.9965 22.4688 78.4209 22.5286 78.8116 22.6484C79.2074 22.763 79.5642 22.9427 79.8819 23.1875C80.1996 23.4323 80.4704 23.7474 80.6944 24.1328C80.9183 24.513 81.0902 24.9688 81.21 25.5C81.3298 26.026 81.3897 26.6302 81.3897 27.3125ZM79.1319 29.5781V27.0078C79.1319 26.5964 79.1084 26.237 79.0616 25.9297C79.0199 25.6224 78.9548 25.362 78.8662 25.1484C78.7777 24.9297 78.6683 24.7526 78.5381 24.6172C78.4079 24.4818 78.2595 24.3828 78.0928 24.3203C77.9261 24.2578 77.7412 24.2266 77.5381 24.2266C77.2829 24.2266 77.0564 24.276 76.8584 24.375C76.6657 24.474 76.5017 24.6328 76.3662 24.8516C76.2308 25.0651 76.1267 25.3516 76.0537 25.7109C75.986 26.0651 75.9522 26.4974 75.9522 27.0078V29.5781C75.9522 29.9896 75.973 30.3516 76.0147 30.6641C76.0616 30.9766 76.1293 31.2448 76.2178 31.4688C76.3116 31.6875 76.4209 31.8672 76.5459 32.0078C76.6761 32.1432 76.8246 32.2422 76.9912 32.3047C77.1631 32.3672 77.3506 32.3984 77.5537 32.3984C77.8037 32.3984 78.0251 32.349 78.2178 32.25C78.4157 32.1458 78.5824 31.9844 78.7178 31.7656C78.8584 31.5417 78.9626 31.25 79.0303 30.8906C79.098 30.5312 79.1319 30.0938 79.1319 29.5781ZM90.6172 27.3125V29.2812C90.6172 30.1354 90.526 30.8724 90.3438 31.4922C90.1615 32.1068 89.8984 32.612 89.5547 33.0078C89.2161 33.3984 88.8125 33.6875 88.3438 33.875C87.875 34.0625 87.3542 34.1562 86.7812 34.1562C86.3229 34.1562 85.8958 34.099 85.5 33.9844C85.1042 33.8646 84.7474 33.6797 84.4297 33.4297C84.1172 33.1797 83.8464 32.8646 83.6172 32.4844C83.3932 32.099 83.2214 31.6406 83.1016 31.1094C82.9818 30.5781 82.9219 29.9688 82.9219 29.2812V27.3125C82.9219 26.4583 83.013 25.7266 83.1953 25.1172C83.3828 24.5026 83.6458 24 83.9844 23.6094C84.3281 23.2188 84.7344 22.9323 85.2031 22.75C85.6719 22.5625 86.1927 22.4688 86.7656 22.4688C87.224 22.4688 87.6484 22.5286 88.0391 22.6484C88.4349 22.763 88.7917 22.9427 89.1094 23.1875C89.4271 23.4323 89.6979 23.7474 89.9219 24.1328C90.1458 24.513 90.3177 24.9688 90.4375 25.5C90.5573 26.026 90.6172 26.6302 90.6172 27.3125ZM88.3594 29.5781V27.0078C88.3594 26.5964 88.3359 26.237 88.2891 25.9297C88.2474 25.6224 88.1823 25.362 88.0938 25.1484C88.0052 24.9297 87.8958 24.7526 87.7656 24.6172C87.6354 24.4818 87.487 24.3828 87.3203 24.3203C87.1536 24.2578 86.9688 24.2266 86.7656 24.2266C86.5104 24.2266 86.2839 24.276 86.0859 24.375C85.8932 24.474 85.7292 24.6328 85.5938 24.8516C85.4583 25.0651 85.3542 25.3516 85.2812 25.7109C85.2135 26.0651 85.1797 26.4974 85.1797 27.0078V29.5781C85.1797 29.9896 85.2005 30.3516 85.2422 30.6641C85.2891 30.9766 85.3568 31.2448 85.4453 31.4688C85.5391 31.6875 85.6484 31.8672 85.7734 32.0078C85.9036 32.1432 86.0521 32.2422 86.2188 32.3047C86.3906 32.3672 86.5781 32.3984 86.7812 32.3984C87.0312 32.3984 87.2526 32.349 87.4453 32.25C87.6432 32.1458 87.8099 31.9844 87.9453 31.7656C88.0859 31.5417 88.1901 31.25 88.2578 30.8906C88.3255 30.5312 88.3594 30.0938 88.3594 29.5781ZM92.1572 25.4141V24.8125C92.1572 24.3802 92.2509 23.987 92.4384 23.6328C92.6259 23.2786 92.902 22.9948 93.2666 22.7812C93.6311 22.5677 94.0791 22.4609 94.6103 22.4609C95.1572 22.4609 95.6129 22.5677 95.9775 22.7812C96.3473 22.9948 96.6233 23.2786 96.8056 23.6328C96.9931 23.987 97.0869 24.3802 97.0869 24.8125V25.4141C97.0869 25.8359 96.9931 26.224 96.8056 26.5781C96.6233 26.9323 96.3499 27.2161 95.9853 27.4297C95.6207 27.6432 95.1702 27.75 94.6338 27.75C94.0921 27.75 93.6364 27.6432 93.2666 27.4297C92.902 27.2161 92.6259 26.9323 92.4384 26.5781C92.2509 26.224 92.1572 25.8359 92.1572 25.4141ZM93.6494 24.8125V25.4141C93.6494 25.5964 93.6832 25.7708 93.7509 25.9375C93.8239 26.099 93.9332 26.2318 94.0791 26.3359C94.2301 26.4349 94.4124 26.4844 94.6259 26.4844C94.8499 26.4844 95.0322 26.4349 95.1728 26.3359C95.3134 26.2318 95.4176 26.099 95.4853 25.9375C95.553 25.7708 95.5869 25.5964 95.5869 25.4141V24.8125C95.5869 24.6198 95.5504 24.4427 95.4775 24.2812C95.4098 24.1146 95.303 23.9818 95.1572 23.8828C95.0166 23.7786 94.8343 23.7266 94.6103 23.7266C94.402 23.7266 94.2249 23.7786 94.0791 23.8828C93.9332 23.9818 93.8239 24.1146 93.7509 24.2812C93.6832 24.4427 93.6494 24.6198 93.6494 24.8125ZM97.5947 31.8125V31.2109C97.5947 30.7839 97.6884 30.3932 97.8759 30.0391C98.0686 29.6849 98.3473 29.401 98.7119 29.1875C99.0817 28.974 99.5348 28.8672 100.071 28.8672C100.613 28.8672 101.066 28.974 101.431 29.1875C101.795 29.401 102.071 29.6849 102.259 30.0391C102.446 30.3932 102.54 30.7839 102.54 31.2109V31.8125C102.54 32.2396 102.446 32.6302 102.259 32.9844C102.076 33.3385 101.803 33.6224 101.438 33.8359C101.074 34.0495 100.623 34.1562 100.087 34.1562C99.5452 34.1562 99.0895 34.0495 98.7197 33.8359C98.3499 33.6224 98.0686 33.3385 97.8759 32.9844C97.6884 32.6302 97.5947 32.2396 97.5947 31.8125ZM99.0947 31.2109V31.8125C99.0947 32 99.1364 32.1771 99.2197 32.3438C99.303 32.5104 99.4176 32.6432 99.5634 32.7422C99.7145 32.8411 99.889 32.8906 100.087 32.8906C100.337 32.8906 100.532 32.8411 100.673 32.7422C100.813 32.6432 100.91 32.5104 100.962 32.3438C101.019 32.1771 101.048 32 101.048 31.8125V31.2109C101.048 31.0234 101.011 30.849 100.938 30.6875C100.866 30.5208 100.756 30.388 100.61 30.2891C100.47 30.1849 100.29 30.1328 100.071 30.1328C99.8525 30.1328 99.6702 30.1849 99.5244 30.2891C99.3838 30.388 99.277 30.5208 99.2041 30.6875C99.1311 30.849 99.0947 31.0234 99.0947 31.2109ZM100.626 24.25L95.0713 33.1406L93.9775 32.5625L99.5322 23.6719L100.626 24.25ZM40.8669 44.5703L37.7731 54H35.2809L39.5075 42.625H41.0934L40.8669 44.5703ZM43.4372 54L40.3356 44.5703L40.0856 42.625H41.6872L45.9372 54H43.4372ZM43.2966 49.7656V51.6016H37.2887V49.7656H43.2966ZM51.1491 42.625V54H48.8131V42.625H51.1491ZM54.6491 42.625V44.4609H45.3678V42.625H54.6491ZM62.3063 42.625H64.6422V50.1406C64.6422 51.0156 64.4547 51.7526 64.0797 52.3516C63.7099 52.9505 63.1969 53.401 62.5406 53.7031C61.8896 54.0052 61.1396 54.1562 60.2906 54.1562C59.4417 54.1562 58.6865 54.0052 58.025 53.7031C57.3688 53.401 56.8531 52.9505 56.4781 52.3516C56.1083 51.7526 55.9234 51.0156 55.9234 50.1406V42.625H58.2672V50.1406C58.2672 50.651 58.3479 51.0677 58.5094 51.3906C58.6708 51.7135 58.9026 51.9505 59.2047 52.1016C59.512 52.2526 59.874 52.3281 60.2906 52.3281C60.7177 52.3281 61.0797 52.2526 61.3766 52.1016C61.6786 51.9505 61.9078 51.7135 62.0641 51.3906C62.2255 51.0677 62.3063 50.651 62.3063 50.1406V42.625ZM71.065 44.5703L67.9713 54H65.4791L69.7056 42.625H71.2916L71.065 44.5703ZM73.6353 54L70.5338 44.5703L70.2838 42.625H71.8853L76.1353 54H73.6353ZM73.4947 49.7656V51.6016H67.4869V49.7656H73.4947ZM84.5425 52.1719V54H78.8159V52.1719H84.5425ZM79.5737 42.625V54H77.23V42.625H79.5737ZM88.4184 42.625V54H86.0825V42.625H88.4184ZM98.8803 52.1719V54H90.8178V52.1719H98.8803ZM98.7631 43.9297L91.8569 54H90.2084V52.6562L97.1694 42.625H98.7631V43.9297ZM97.9584 42.625V44.4609H90.2162V42.625H97.9584ZM105.147 44.5703L102.053 54H99.5609L103.787 42.625H105.373L105.147 44.5703ZM107.717 54L104.616 44.5703L104.366 42.625H105.967L110.217 54H107.717ZM107.577 49.7656V51.6016H101.569V49.7656H107.577ZM114.804 54H112.327L112.343 52.1719H114.804C115.419 52.1719 115.937 52.0339 116.359 51.7578C116.781 51.4766 117.098 51.0677 117.312 50.5312C117.531 49.9948 117.64 49.3464 117.64 48.5859V48.0312C117.64 47.4479 117.577 46.9349 117.452 46.4922C117.333 46.0495 117.153 45.6771 116.913 45.375C116.674 45.0729 116.38 44.8464 116.031 44.6953C115.682 44.5391 115.281 44.4609 114.827 44.4609H112.281V42.625H114.827C115.588 42.625 116.283 42.7552 116.913 43.0156C117.549 43.2708 118.098 43.638 118.562 44.1172C119.025 44.5964 119.382 45.1693 119.632 45.8359C119.887 46.4974 120.015 47.2344 120.015 48.0469V48.5859C120.015 49.3932 119.887 50.1302 119.632 50.7969C119.382 51.4635 119.025 52.0365 118.562 52.5156C118.104 52.9896 117.554 53.3568 116.913 53.6172C116.278 53.8724 115.575 54 114.804 54ZM113.656 42.625V54H111.312V42.625H113.656ZM131.102 48.0469V48.5859C131.102 49.4505 130.985 50.2266 130.75 50.9141C130.516 51.6016 130.185 52.1875 129.758 52.6719C129.331 53.151 128.821 53.5182 128.227 53.7734C127.638 54.0286 126.985 54.1562 126.266 54.1562C125.552 54.1562 124.899 54.0286 124.305 53.7734C123.716 53.5182 123.206 53.151 122.774 52.6719C122.341 52.1875 122.006 51.6016 121.766 50.9141C121.532 50.2266 121.414 49.4505 121.414 48.5859V48.0469C121.414 47.1771 121.532 46.401 121.766 45.7188C122 45.0312 122.331 44.4453 122.758 43.9609C123.19 43.4766 123.701 43.1068 124.289 42.8516C124.883 42.5964 125.537 42.4688 126.25 42.4688C126.969 42.4688 127.623 42.5964 128.211 42.8516C128.805 43.1068 129.315 43.4766 129.743 43.9609C130.175 44.4453 130.508 45.0312 130.743 45.7188C130.982 46.401 131.102 47.1771 131.102 48.0469ZM128.735 48.5859V48.0312C128.735 47.4271 128.68 46.8958 128.571 46.4375C128.461 45.9792 128.3 45.5938 128.086 45.2812C127.873 44.9688 127.612 44.7344 127.305 44.5781C126.998 44.4167 126.646 44.3359 126.25 44.3359C125.854 44.3359 125.503 44.4167 125.196 44.5781C124.894 44.7344 124.636 44.9688 124.422 45.2812C124.214 45.5938 124.055 45.9792 123.946 46.4375C123.836 46.8958 123.782 47.4271 123.782 48.0312V48.5859C123.782 49.1849 123.836 49.7161 123.946 50.1797C124.055 50.638 124.216 51.026 124.43 51.3438C124.644 51.6562 124.904 51.8932 125.211 52.0547C125.519 52.2161 125.87 52.2969 126.266 52.2969C126.662 52.2969 127.013 52.2161 127.321 52.0547C127.628 51.8932 127.886 51.6562 128.094 51.3438C128.302 51.026 128.461 50.638 128.571 50.1797C128.68 49.7161 128.735 49.1849 128.735 48.5859Z" fill="#020441"/>
<path d="M48.3681 66.2246L45.5439 74H44.3896L47.6416 65.4688H48.3857L48.3681 66.2246ZM50.7353 74L47.9052 66.2246L47.8877 65.4688H48.6318L51.8955 74H50.7353ZM50.5888 70.8418V71.7676H45.7959V70.8418H50.5888ZM55.4528 67.6602V68.4922H52.0251V67.6602H55.4528ZM53.1852 66.1191H54.2692V72.4297C54.2692 72.6445 54.3024 72.8066 54.3688 72.916C54.4352 73.0254 54.5212 73.0977 54.6266 73.1328C54.7321 73.168 54.8454 73.1855 54.9665 73.1855C55.0563 73.1855 55.1501 73.1777 55.2477 73.1621C55.3493 73.1426 55.4255 73.127 55.4763 73.1152L55.4821 74C55.3962 74.0273 55.2829 74.0527 55.1423 74.0762C55.0055 74.1035 54.8395 74.1172 54.6442 74.1172C54.3786 74.1172 54.1345 74.0645 53.9118 73.959C53.6891 73.8535 53.5114 73.6777 53.3786 73.4316C53.2497 73.1816 53.1852 72.8457 53.1852 72.4238V66.1191ZM60.6332 72.5352V67.6602H61.723V74H60.6859L60.6332 72.5352ZM60.8383 71.1992L61.2895 71.1875C61.2895 71.6094 61.2445 72 61.1547 72.3594C61.0688 72.7148 60.9281 73.0234 60.7328 73.2852C60.5375 73.5469 60.2816 73.752 59.9652 73.9004C59.6488 74.0449 59.2641 74.1172 58.8109 74.1172C58.5023 74.1172 58.2191 74.0723 57.9613 73.9824C57.7074 73.8926 57.4887 73.7539 57.3051 73.5664C57.1215 73.3789 56.9789 73.1348 56.8773 72.834C56.7797 72.5332 56.7309 72.1719 56.7309 71.75V67.6602H57.8148V71.7617C57.8148 72.0469 57.8461 72.2832 57.9086 72.4707C57.975 72.6543 58.0629 72.8008 58.1723 72.9102C58.2855 73.0156 58.4105 73.0898 58.5473 73.1328C58.6879 73.1758 58.8324 73.1973 58.9809 73.1973C59.4418 73.1973 59.807 73.1094 60.0766 72.9336C60.3461 72.7539 60.5395 72.5137 60.6566 72.2129C60.7777 71.9082 60.8383 71.5703 60.8383 71.1992ZM67.1437 72.916V69.6523C67.1437 69.4023 67.0929 69.1855 66.9913 69.002C66.8937 68.8145 66.7452 68.6699 66.546 68.5684C66.3468 68.4668 66.1007 68.416 65.8077 68.416C65.5343 68.416 65.2941 68.4629 65.087 68.5566C64.8839 68.6504 64.7238 68.7734 64.6066 68.9258C64.4933 69.0781 64.4366 69.2422 64.4366 69.418H63.3527C63.3527 69.1914 63.4113 68.9668 63.5284 68.7441C63.6456 68.5215 63.8136 68.3203 64.0323 68.1406C64.255 67.957 64.5206 67.8125 64.8292 67.707C65.1417 67.5977 65.4894 67.543 65.8722 67.543C66.3331 67.543 66.7394 67.6211 67.0909 67.7773C67.4464 67.9336 67.7238 68.1699 67.923 68.4863C68.1261 68.7988 68.2277 69.1914 68.2277 69.6641V72.6172C68.2277 72.8281 68.2452 73.0527 68.2804 73.291C68.3195 73.5293 68.3761 73.7344 68.4503 73.9062V74H67.3195C67.2648 73.875 67.2218 73.709 67.1905 73.502C67.1593 73.291 67.1437 73.0957 67.1437 72.916ZM67.3312 70.1562L67.3429 70.918H66.2472C65.9386 70.918 65.6632 70.9434 65.421 70.9941C65.1788 71.041 64.9757 71.1133 64.8116 71.2109C64.6476 71.3086 64.5226 71.4316 64.4366 71.5801C64.3507 71.7246 64.3077 71.8945 64.3077 72.0898C64.3077 72.2891 64.3527 72.4707 64.4425 72.6348C64.5323 72.7988 64.6671 72.9297 64.8468 73.0273C65.0304 73.1211 65.255 73.168 65.5206 73.168C65.8527 73.168 66.1456 73.0977 66.3995 72.957C66.6534 72.8164 66.8546 72.6445 67.003 72.4414C67.1554 72.2383 67.2374 72.041 67.2491 71.8496L67.712 72.3711C67.6847 72.5352 67.6105 72.7168 67.4894 72.916C67.3683 73.1152 67.2062 73.3066 67.003 73.4902C66.8038 73.6699 66.5655 73.8203 66.2882 73.9414C66.0148 74.0586 65.7062 74.1172 65.3624 74.1172C64.9327 74.1172 64.5558 74.0332 64.2316 73.8652C63.9113 73.6973 63.6613 73.4727 63.4816 73.1914C63.3058 72.9062 63.2179 72.5879 63.2179 72.2363C63.2179 71.8965 63.2843 71.5977 63.4171 71.3398C63.5499 71.0781 63.7413 70.8613 63.9913 70.6895C64.2413 70.5137 64.5421 70.3809 64.8937 70.291C65.2452 70.2012 65.6378 70.1562 66.0714 70.1562H67.3312ZM71.1405 65V74H70.0506V65H71.1405ZM74.0884 67.6602V74H72.9986V67.6602H74.0884ZM72.9166 65.9785C72.9166 65.8027 72.9693 65.6543 73.0748 65.5332C73.1841 65.4121 73.3443 65.3516 73.5552 65.3516C73.7623 65.3516 73.9205 65.4121 74.0298 65.5332C74.1431 65.6543 74.1998 65.8027 74.1998 65.9785C74.1998 66.1465 74.1431 66.291 74.0298 66.4121C73.9205 66.5293 73.7623 66.5879 73.5552 66.5879C73.3443 66.5879 73.1841 66.5293 73.0748 66.4121C72.9693 66.291 72.9166 66.1465 72.9166 65.9785ZM80.5813 73.1094V74H75.97V73.1094H80.5813ZM80.4114 68.4277L76.2161 74H75.554V73.2031L79.72 67.6602H80.4114V68.4277ZM79.9309 67.6602V68.5566H75.6009V67.6602H79.9309ZM85.5801 72.916V69.6523C85.5801 69.4023 85.5293 69.1855 85.4277 69.002C85.3301 68.8145 85.1816 68.6699 84.9824 68.5684C84.7832 68.4668 84.5371 68.416 84.2441 68.416C83.9707 68.416 83.7305 68.4629 83.5234 68.5566C83.3203 68.6504 83.1602 68.7734 83.043 68.9258C82.9297 69.0781 82.873 69.2422 82.873 69.418H81.7891C81.7891 69.1914 81.8477 68.9668 81.9648 68.7441C82.082 68.5215 82.25 68.3203 82.4688 68.1406C82.6914 67.957 82.957 67.8125 83.2656 67.707C83.5781 67.5977 83.9258 67.543 84.3086 67.543C84.7695 67.543 85.1758 67.6211 85.5273 67.7773C85.8828 67.9336 86.1602 68.1699 86.3594 68.4863C86.5625 68.7988 86.6641 69.1914 86.6641 69.6641V72.6172C86.6641 72.8281 86.6816 73.0527 86.7168 73.291C86.7559 73.5293 86.8125 73.7344 86.8867 73.9062V74H85.7559C85.7012 73.875 85.6582 73.709 85.627 73.502C85.5957 73.291 85.5801 73.0957 85.5801 72.916ZM85.7676 70.1562L85.7793 70.918H84.6836C84.375 70.918 84.0996 70.9434 83.8574 70.9941C83.6152 71.041 83.4121 71.1133 83.248 71.2109C83.084 71.3086 82.959 71.4316 82.873 71.5801C82.7871 71.7246 82.7441 71.8945 82.7441 72.0898C82.7441 72.2891 82.7891 72.4707 82.8789 72.6348C82.9688 72.7988 83.1035 72.9297 83.2832 73.0273C83.4668 73.1211 83.6914 73.168 83.957 73.168C84.2891 73.168 84.582 73.0977 84.8359 72.957C85.0898 72.8164 85.291 72.6445 85.4395 72.4414C85.5918 72.2383 85.6738 72.041 85.6855 71.8496L86.1484 72.3711C86.1211 72.5352 86.0469 72.7168 85.9258 72.916C85.8047 73.1152 85.6426 73.3066 85.4395 73.4902C85.2402 73.6699 85.002 73.8203 84.7246 73.9414C84.4512 74.0586 84.1426 74.1172 83.7988 74.1172C83.3691 74.1172 82.9922 74.0332 82.668 73.8652C82.3477 73.6973 82.0977 73.4727 81.918 73.1914C81.7422 72.9062 81.6543 72.5879 81.6543 72.2363C81.6543 71.8965 81.7207 71.5977 81.8535 71.3398C81.9863 71.0781 82.1777 70.8613 82.4277 70.6895C82.6777 70.5137 82.9785 70.3809 83.3301 70.291C83.6816 70.2012 84.0742 70.1562 84.5078 70.1562H85.7676ZM90.9362 73.2266C91.1941 73.2266 91.4323 73.1738 91.6511 73.0684C91.8698 72.9629 92.0495 72.8184 92.1902 72.6348C92.3308 72.4473 92.4109 72.2344 92.4304 71.9961H93.4616C93.4421 72.3711 93.3152 72.7207 93.0808 73.0449C92.8503 73.3652 92.5476 73.625 92.1726 73.8242C91.7976 74.0195 91.3855 74.1172 90.9362 74.1172C90.4597 74.1172 90.0437 74.0332 89.6882 73.8652C89.3366 73.6973 89.0437 73.4668 88.8093 73.1738C88.5788 72.8809 88.405 72.5449 88.2878 72.166C88.1745 71.7832 88.1179 71.3789 88.1179 70.9531V70.707C88.1179 70.2812 88.1745 69.8789 88.2878 69.5C88.405 69.1172 88.5788 68.7793 88.8093 68.4863C89.0437 68.1934 89.3366 67.9629 89.6882 67.7949C90.0437 67.627 90.4597 67.543 90.9362 67.543C91.4323 67.543 91.8659 67.6445 92.237 67.8477C92.6081 68.0469 92.8991 68.3203 93.1101 68.668C93.3249 69.0117 93.4421 69.4023 93.4616 69.8398H92.4304C92.4109 69.5781 92.3366 69.3418 92.2077 69.1309C92.0827 68.9199 91.9109 68.752 91.6921 68.627C91.4773 68.498 91.2253 68.4336 90.9362 68.4336C90.6042 68.4336 90.3249 68.5 90.0984 68.6328C89.8757 68.7617 89.698 68.9375 89.5652 69.1602C89.4362 69.3789 89.3425 69.623 89.2839 69.8926C89.2292 70.1582 89.2019 70.4297 89.2019 70.707V70.9531C89.2019 71.2305 89.2292 71.5039 89.2839 71.7734C89.3386 72.043 89.4304 72.2871 89.5593 72.5059C89.6921 72.7246 89.8698 72.9004 90.0925 73.0332C90.3191 73.1621 90.6003 73.2266 90.9362 73.2266ZM90.3386 74.0586H91.1179L91.0476 74.3691C91.2741 74.4082 91.4792 74.502 91.6628 74.6504C91.8503 74.7988 91.9441 75.043 91.9441 75.3828C91.9441 75.5664 91.905 75.7324 91.8269 75.8809C91.7527 76.0332 91.6413 76.1621 91.4929 76.2676C91.3445 76.377 91.1589 76.4609 90.9362 76.5195C90.7175 76.5781 90.4616 76.6074 90.1687 76.6074L90.1277 75.9805C90.3073 75.9805 90.4695 75.9609 90.614 75.9219C90.7624 75.8828 90.8796 75.8203 90.9655 75.7344C91.0554 75.6484 91.1003 75.5371 91.1003 75.4004C91.1003 75.2715 91.0671 75.1699 91.0007 75.0957C90.9343 75.0215 90.8308 74.9648 90.6902 74.9258C90.5534 74.8906 90.3757 74.8652 90.157 74.8496L90.3386 74.0586ZM94.4233 70.9004V70.7656C94.4233 70.3086 94.4897 69.8848 94.6225 69.4941C94.7553 69.0996 94.9467 68.7578 95.1967 68.4688C95.4467 68.1758 95.7495 67.9492 96.1049 67.7891C96.4604 67.625 96.8588 67.543 97.3002 67.543C97.7455 67.543 98.1459 67.625 98.5014 67.7891C98.8608 67.9492 99.1655 68.1758 99.4155 68.4688C99.6694 68.7578 99.8627 69.0996 99.9955 69.4941C100.128 69.8848 100.195 70.3086 100.195 70.7656V70.9004C100.195 71.3574 100.128 71.7812 99.9955 72.1719C99.8627 72.5625 99.6694 72.9043 99.4155 73.1973C99.1655 73.4863 98.8627 73.7129 98.5073 73.877C98.1557 74.0371 97.7573 74.1172 97.312 74.1172C96.8666 74.1172 96.4662 74.0371 96.1108 73.877C95.7553 73.7129 95.4506 73.4863 95.1967 73.1973C94.9467 72.9043 94.7553 72.5625 94.6225 72.1719C94.4897 71.7812 94.4233 71.3574 94.4233 70.9004ZM95.5073 70.7656V70.9004C95.5073 71.2168 95.5444 71.5156 95.6186 71.7969C95.6928 72.0742 95.8041 72.3203 95.9526 72.5352C96.1049 72.75 96.2944 72.9199 96.5209 73.0449C96.7475 73.166 97.0112 73.2266 97.312 73.2266C97.6088 73.2266 97.8686 73.166 98.0912 73.0449C98.3178 72.9199 98.5053 72.75 98.6537 72.5352C98.8022 72.3203 98.9135 72.0742 98.9877 71.7969C99.0659 71.5156 99.1049 71.2168 99.1049 70.9004V70.7656C99.1049 70.4531 99.0659 70.1582 98.9877 69.8809C98.9135 69.5996 98.8002 69.3516 98.6479 69.1367C98.4995 68.918 98.312 68.7461 98.0854 68.6211C97.8627 68.4961 97.601 68.4336 97.3002 68.4336C97.0034 68.4336 96.7416 68.4961 96.5151 68.6211C96.2924 68.7461 96.1049 68.918 95.9526 69.1367C95.8041 69.3516 95.6928 69.5996 95.6186 69.8809C95.5444 70.1582 95.5073 70.4531 95.5073 70.7656ZM98.601 65.1172L99.3334 65.1816C99.3334 65.4668 99.2768 65.7168 99.1635 65.9316C99.0502 66.1465 98.8979 66.3125 98.7065 66.4297C98.519 66.5469 98.3061 66.6055 98.0678 66.6055C97.8686 66.6055 97.7045 66.5781 97.5756 66.5234C97.4467 66.4648 97.3315 66.4004 97.2299 66.3301C97.1284 66.2559 97.0209 66.1914 96.9077 66.1367C96.7983 66.0781 96.6616 66.0488 96.4975 66.0488C96.3334 66.0488 96.1948 66.1113 96.0815 66.2363C95.9721 66.3613 95.9174 66.5156 95.9174 66.6992L95.185 66.6641C95.185 66.3789 95.2397 66.1289 95.3491 65.9141C95.4623 65.6953 95.6147 65.5254 95.8061 65.4043C95.9975 65.2793 96.2104 65.2168 96.4448 65.2168C96.6127 65.2168 96.7592 65.2461 96.8842 65.3047C97.0131 65.3594 97.1342 65.4238 97.2475 65.498C97.3608 65.5684 97.478 65.6328 97.5991 65.6914C97.7202 65.7461 97.8588 65.7734 98.0151 65.7734C98.1791 65.7734 98.3178 65.7109 98.4311 65.5859C98.5444 65.457 98.601 65.3008 98.601 65.1172ZM104.215 74.1172C103.774 74.1172 103.373 74.043 103.014 73.8945C102.658 73.7422 102.352 73.5293 102.094 73.2559C101.84 72.9824 101.645 72.6582 101.508 72.2832C101.371 71.9082 101.303 71.498 101.303 71.0527V70.8066C101.303 70.291 101.379 69.832 101.531 69.4297C101.684 69.0234 101.891 68.6797 102.152 68.3984C102.414 68.1172 102.711 67.9043 103.043 67.7598C103.375 67.6152 103.719 67.543 104.074 67.543C104.527 67.543 104.918 67.6211 105.246 67.7773C105.578 67.9336 105.85 68.1523 106.061 68.4336C106.272 68.7109 106.428 69.0391 106.529 69.418C106.631 69.793 106.682 70.2031 106.682 70.6484V71.1348H101.947V70.25H105.598V70.168C105.582 69.8867 105.524 69.6133 105.422 69.3477C105.324 69.082 105.168 68.8633 104.953 68.6914C104.738 68.5195 104.445 68.4336 104.074 68.4336C103.828 68.4336 103.602 68.4863 103.395 68.5918C103.188 68.6934 103.01 68.8457 102.861 69.0488C102.713 69.252 102.598 69.5 102.516 69.793C102.434 70.0859 102.393 70.4238 102.393 70.8066V71.0527C102.393 71.3535 102.434 71.6367 102.516 71.9023C102.602 72.1641 102.725 72.3945 102.885 72.5938C103.049 72.793 103.246 72.9492 103.477 73.0625C103.711 73.1758 103.977 73.2324 104.274 73.2324C104.656 73.2324 104.981 73.1543 105.246 72.998C105.512 72.8418 105.744 72.6328 105.944 72.3711L106.6 72.8926C106.463 73.0996 106.289 73.2969 106.078 73.4844C105.867 73.6719 105.608 73.8242 105.299 73.9414C104.994 74.0586 104.633 74.1172 104.215 74.1172ZM111.669 72.3184C111.669 72.1621 111.634 72.0176 111.563 71.8848C111.497 71.748 111.358 71.625 111.147 71.5156C110.94 71.4023 110.628 71.3047 110.21 71.2227C109.858 71.1484 109.54 71.0605 109.255 70.959C108.974 70.8574 108.733 70.7344 108.534 70.5898C108.339 70.4453 108.188 70.2754 108.083 70.0801C107.977 69.8848 107.925 69.6562 107.925 69.3945C107.925 69.1445 107.979 68.9082 108.089 68.6855C108.202 68.4629 108.36 68.2656 108.563 68.0938C108.77 67.9219 109.018 67.7871 109.308 67.6895C109.597 67.5918 109.919 67.543 110.274 67.543C110.782 67.543 111.216 67.6328 111.575 67.8125C111.934 67.9922 112.21 68.2324 112.401 68.5332C112.593 68.8301 112.688 69.1602 112.688 69.5234H111.604C111.604 69.3477 111.552 69.1777 111.446 69.0137C111.345 68.8457 111.194 68.707 110.995 68.5977C110.8 68.4883 110.559 68.4336 110.274 68.4336C109.974 68.4336 109.729 68.4805 109.542 68.5742C109.358 68.6641 109.224 68.7793 109.138 68.9199C109.056 69.0605 109.015 69.209 109.015 69.3652C109.015 69.4824 109.034 69.5879 109.073 69.6816C109.116 69.7715 109.19 69.8555 109.296 69.9336C109.401 70.0078 109.55 70.0781 109.741 70.1445C109.933 70.2109 110.177 70.2773 110.474 70.3438C110.993 70.4609 111.421 70.6016 111.757 70.7656C112.093 70.9297 112.343 71.1309 112.507 71.3691C112.671 71.6074 112.753 71.8965 112.753 72.2363C112.753 72.5137 112.694 72.7676 112.577 72.998C112.464 73.2285 112.298 73.4277 112.079 73.5957C111.864 73.7598 111.606 73.8887 111.306 73.9824C111.009 74.0723 110.675 74.1172 110.304 74.1172C109.745 74.1172 109.272 74.0176 108.886 73.8184C108.499 73.6191 108.206 73.3613 108.007 73.0449C107.808 72.7285 107.708 72.3945 107.708 72.043H108.798C108.813 72.3398 108.899 72.5762 109.056 72.752C109.212 72.9238 109.403 73.0469 109.63 73.1211C109.856 73.1914 110.081 73.2266 110.304 73.2266C110.6 73.2266 110.849 73.1875 111.048 73.1094C111.251 73.0312 111.405 72.9238 111.511 72.7871C111.616 72.6504 111.669 72.4941 111.669 72.3184ZM119.844 74.1172C119.403 74.1172 119.002 74.043 118.643 73.8945C118.287 73.7422 117.981 73.5293 117.723 73.2559C117.469 72.9824 117.274 72.6582 117.137 72.2832C117 71.9082 116.932 71.498 116.932 71.0527V70.8066C116.932 70.291 117.008 69.832 117.16 69.4297C117.313 69.0234 117.52 68.6797 117.782 68.3984C118.043 68.1172 118.34 67.9043 118.672 67.7598C119.004 67.6152 119.348 67.543 119.703 67.543C120.157 67.543 120.547 67.6211 120.875 67.7773C121.207 67.9336 121.479 68.1523 121.69 68.4336C121.901 68.7109 122.057 69.0391 122.159 69.418C122.26 69.793 122.311 70.2031 122.311 70.6484V71.1348H117.576V70.25H121.227V70.168C121.211 69.8867 121.153 69.6133 121.051 69.3477C120.953 69.082 120.797 68.8633 120.582 68.6914C120.368 68.5195 120.075 68.4336 119.703 68.4336C119.457 68.4336 119.231 68.4863 119.024 68.5918C118.817 68.6934 118.639 68.8457 118.491 69.0488C118.342 69.252 118.227 69.5 118.145 69.793C118.063 70.0859 118.022 70.4238 118.022 70.8066V71.0527C118.022 71.3535 118.063 71.6367 118.145 71.9023C118.231 72.1641 118.354 72.3945 118.514 72.5938C118.678 72.793 118.875 72.9492 119.106 73.0625C119.34 73.1758 119.606 73.2324 119.903 73.2324C120.285 73.2324 120.61 73.1543 120.875 72.998C121.141 72.8418 121.373 72.6328 121.573 72.3711L122.229 72.8926C122.092 73.0996 121.918 73.2969 121.707 73.4844C121.496 73.6719 121.237 73.8242 120.928 73.9414C120.623 74.0586 120.262 74.1172 119.844 74.1172ZM27.381 88.9199V94H26.2912V87.6602H27.3224L27.381 88.9199ZM27.1584 90.5898L26.6545 90.5723C26.6584 90.1387 26.715 89.7383 26.8244 89.3711C26.9338 89 27.0959 88.6777 27.3107 88.4043C27.5255 88.1309 27.7931 87.9199 28.1134 87.7715C28.4338 87.6191 28.8048 87.543 29.2267 87.543C29.5236 87.543 29.797 87.5859 30.047 87.6719C30.297 87.7539 30.5138 87.8848 30.6974 88.0645C30.881 88.2441 31.0236 88.4746 31.1252 88.7559C31.2267 89.0371 31.2775 89.377 31.2775 89.7754V94H30.1935V89.8281C30.1935 89.4961 30.1369 89.2305 30.0236 89.0312C29.9142 88.832 29.758 88.6875 29.5548 88.5977C29.3517 88.5039 29.1134 88.457 28.84 88.457C28.5197 88.457 28.2521 88.5137 28.0373 88.627C27.8224 88.7402 27.6505 88.8965 27.5216 89.0957C27.3927 89.2949 27.299 89.5234 27.2404 89.7812C27.1857 90.0352 27.1584 90.3047 27.1584 90.5898ZM31.2658 89.9922L30.5392 90.2148C30.5431 89.8672 30.5998 89.5332 30.7091 89.2129C30.8224 88.8926 30.9845 88.6074 31.1955 88.3574C31.4103 88.1074 31.674 87.9102 31.9865 87.7656C32.299 87.6172 32.6564 87.543 33.0588 87.543C33.3986 87.543 33.6994 87.5879 33.9611 87.6777C34.2267 87.7676 34.4494 87.9062 34.6291 88.0938C34.8127 88.2773 34.9513 88.5137 35.0451 88.8027C35.1388 89.0918 35.1857 89.4355 35.1857 89.834V94H34.0959V89.8223C34.0959 89.4668 34.0392 89.1914 33.9259 88.9961C33.8166 88.7969 33.6603 88.6582 33.4572 88.5801C33.258 88.498 33.0197 88.457 32.7423 88.457C32.5041 88.457 32.2931 88.498 32.1095 88.5801C31.9259 88.6621 31.7716 88.7754 31.6466 88.9199C31.5216 89.0605 31.4259 89.2227 31.3595 89.4062C31.297 89.5898 31.2658 89.7852 31.2658 89.9922ZM39.4872 94.1172C39.0458 94.1172 38.6454 94.043 38.286 93.8945C37.9305 93.7422 37.6239 93.5293 37.3661 93.2559C37.1122 92.9824 36.9169 92.6582 36.7802 92.2832C36.6434 91.9082 36.5751 91.498 36.5751 91.0527V90.8066C36.5751 90.291 36.6512 89.832 36.8036 89.4297C36.9559 89.0234 37.163 88.6797 37.4247 88.3984C37.6864 88.1172 37.9833 87.9043 38.3153 87.7598C38.6473 87.6152 38.9911 87.543 39.3466 87.543C39.7997 87.543 40.1903 87.6211 40.5184 87.7773C40.8505 87.9336 41.122 88.1523 41.3329 88.4336C41.5438 88.7109 41.7001 89.0391 41.8016 89.418C41.9032 89.793 41.954 90.2031 41.954 90.6484V91.1348H37.2196V90.25H40.87V90.168C40.8544 89.8867 40.7958 89.6133 40.6942 89.3477C40.5966 89.082 40.4403 88.8633 40.2255 88.6914C40.0106 88.5195 39.7177 88.4336 39.3466 88.4336C39.1005 88.4336 38.8739 88.4863 38.6669 88.5918C38.4598 88.6934 38.2821 88.8457 38.1337 89.0488C37.9852 89.252 37.87 89.5 37.788 89.793C37.7059 90.0859 37.6649 90.4238 37.6649 90.8066V91.0527C37.6649 91.3535 37.7059 91.6367 37.788 91.9023C37.8739 92.1641 37.997 92.3945 38.1571 92.5938C38.3212 92.793 38.5184 92.9492 38.7489 93.0625C38.9833 93.1758 39.2489 93.2324 39.5458 93.2324C39.9286 93.2324 40.2528 93.1543 40.5184 92.998C40.7841 92.8418 41.0165 92.6328 41.2157 92.3711L41.872 92.8926C41.7352 93.0996 41.5614 93.2969 41.3505 93.4844C41.1395 93.6719 40.8798 93.8242 40.5712 93.9414C40.2665 94.0586 39.9052 94.1172 39.4872 94.1172ZM44.4273 85V94H43.3375V85H44.4273ZM47.2816 85V94H46.1976V85H47.2816ZM47.0238 90.5898L46.5726 90.5723C46.5765 90.1387 46.6409 89.7383 46.7659 89.3711C46.8909 89 47.0667 88.6777 47.2933 88.4043C47.5198 88.1309 47.7894 87.9199 48.1019 87.7715C48.4183 87.6191 48.7679 87.543 49.1507 87.543C49.4632 87.543 49.7445 87.5859 49.9945 87.6719C50.2445 87.7539 50.4573 87.8867 50.6331 88.0703C50.8128 88.2539 50.9495 88.4922 51.0433 88.7852C51.137 89.0742 51.1839 89.4277 51.1839 89.8457V94H50.0941V89.834C50.0941 89.502 50.0452 89.2363 49.9476 89.0371C49.8499 88.834 49.7073 88.6875 49.5198 88.5977C49.3323 88.5039 49.1019 88.457 48.8284 88.457C48.5589 88.457 48.3128 88.5137 48.0902 88.627C47.8714 88.7402 47.682 88.8965 47.5218 89.0957C47.3655 89.2949 47.2425 89.5234 47.1527 89.7812C47.0667 90.0352 47.0238 90.3047 47.0238 90.5898ZM52.5498 90.9004V90.7656C52.5498 90.3086 52.6162 89.8848 52.7491 89.4941C52.8819 89.0996 53.0733 88.7578 53.3233 88.4688C53.5733 88.1758 53.876 87.9492 54.2315 87.7891C54.587 87.625 54.9854 87.543 55.4268 87.543C55.8721 87.543 56.2725 87.625 56.628 87.7891C56.9873 87.9492 57.292 88.1758 57.542 88.4688C57.7959 88.7578 57.9893 89.0996 58.1221 89.4941C58.2549 89.8848 58.3213 90.3086 58.3213 90.7656V90.9004C58.3213 91.3574 58.2549 91.7812 58.1221 92.1719C57.9893 92.5625 57.7959 92.9043 57.542 93.1973C57.292 93.4863 56.9893 93.7129 56.6338 93.877C56.2823 94.0371 55.8838 94.1172 55.4385 94.1172C54.9932 94.1172 54.5928 94.0371 54.2373 93.877C53.8819 93.7129 53.5772 93.4863 53.3233 93.1973C53.0733 92.9043 52.8819 92.5625 52.7491 92.1719C52.6162 91.7812 52.5498 91.3574 52.5498 90.9004ZM53.6338 90.7656V90.9004C53.6338 91.2168 53.6709 91.5156 53.7452 91.7969C53.8194 92.0742 53.9307 92.3203 54.0791 92.5352C54.2315 92.75 54.4209 92.9199 54.6475 93.0449C54.8741 93.166 55.1377 93.2266 55.4385 93.2266C55.7354 93.2266 55.9952 93.166 56.2178 93.0449C56.4444 92.9199 56.6319 92.75 56.7803 92.5352C56.9287 92.3203 57.0401 92.0742 57.1143 91.7969C57.1924 91.5156 57.2315 91.2168 57.2315 90.9004V90.7656C57.2315 90.4531 57.1924 90.1582 57.1143 89.8809C57.0401 89.5996 56.9268 89.3516 56.7745 89.1367C56.626 88.918 56.4385 88.7461 56.212 88.6211C55.9893 88.4961 55.7276 88.4336 55.4268 88.4336C55.1299 88.4336 54.8682 88.4961 54.6416 88.6211C54.419 88.7461 54.2315 88.918 54.0791 89.1367C53.9307 89.3516 53.8194 89.5996 53.7452 89.8809C53.6709 90.1582 53.6338 90.4531 53.6338 90.7656ZM60.7947 88.6562V94H59.7107V87.6602H60.7654L60.7947 88.6562ZM62.7752 87.625L62.7693 88.6328C62.6795 88.6133 62.5935 88.6016 62.5115 88.5977C62.4334 88.5898 62.3435 88.5859 62.242 88.5859C61.992 88.5859 61.7713 88.625 61.5798 88.7031C61.3884 88.7812 61.2263 88.8906 61.0935 89.0312C60.9607 89.1719 60.8552 89.3398 60.7771 89.5352C60.7029 89.7266 60.6541 89.9375 60.6306 90.168L60.3259 90.3438C60.3259 89.9609 60.363 89.6016 60.4373 89.2656C60.5154 88.9297 60.6345 88.6328 60.7947 88.375C60.9548 88.1133 61.158 87.9102 61.4041 87.7656C61.6541 87.6172 61.9509 87.543 62.2947 87.543C62.3728 87.543 62.4627 87.5527 62.5642 87.5723C62.6658 87.5879 62.7361 87.6055 62.7752 87.625ZM64.9848 87.6602V94H63.895V87.6602H64.9848ZM63.813 85.9785C63.813 85.8027 63.8657 85.6543 63.9712 85.5332C64.0805 85.4121 64.2407 85.3516 64.4516 85.3516C64.6587 85.3516 64.8169 85.4121 64.9263 85.5332C65.0395 85.6543 65.0962 85.8027 65.0962 85.9785C65.0962 86.1465 65.0395 86.291 64.9263 86.4121C64.8169 86.5293 64.6587 86.5879 64.4516 86.5879C64.2407 86.5879 64.0805 86.5293 63.9712 86.4121C63.8657 86.291 63.813 86.1465 63.813 85.9785ZM70.4934 92.916V89.6523C70.4934 89.4023 70.4426 89.1855 70.341 89.002C70.2434 88.8145 70.0949 88.6699 69.8957 88.5684C69.6965 88.4668 69.4504 88.416 69.1574 88.416C68.884 88.416 68.6437 88.4629 68.4367 88.5566C68.2336 88.6504 68.0734 88.7734 67.9562 88.9258C67.843 89.0781 67.7863 89.2422 67.7863 89.418H66.7023C66.7023 89.1914 66.7609 88.9668 66.8781 88.7441C66.9953 88.5215 67.1633 88.3203 67.382 88.1406C67.6047 87.957 67.8703 87.8125 68.1789 87.707C68.4914 87.5977 68.8391 87.543 69.2219 87.543C69.6828 87.543 70.0891 87.6211 70.4406 87.7773C70.7961 87.9336 71.0734 88.1699 71.2727 88.4863C71.4758 88.7988 71.5773 89.1914 71.5773 89.6641V92.6172C71.5773 92.8281 71.5949 93.0527 71.6301 93.291C71.6691 93.5293 71.7258 93.7344 71.8 93.9062V94H70.6691C70.6145 93.875 70.5715 93.709 70.5402 93.502C70.509 93.291 70.4934 93.0957 70.4934 92.916ZM70.6809 90.1562L70.6926 90.918H69.5969C69.2883 90.918 69.0129 90.9434 68.7707 90.9941C68.5285 91.041 68.3254 91.1133 68.1613 91.2109C67.9973 91.3086 67.8723 91.4316 67.7863 91.5801C67.7004 91.7246 67.6574 91.8945 67.6574 92.0898C67.6574 92.2891 67.7023 92.4707 67.7922 92.6348C67.882 92.7988 68.0168 92.9297 68.1965 93.0273C68.3801 93.1211 68.6047 93.168 68.8703 93.168C69.2023 93.168 69.4953 93.0977 69.7492 92.957C70.0031 92.8164 70.2043 92.6445 70.3527 92.4414C70.5051 92.2383 70.5871 92.041 70.5988 91.8496L71.0617 92.3711C71.0344 92.5352 70.9602 92.7168 70.8391 92.916C70.718 93.1152 70.5559 93.3066 70.3527 93.4902C70.1535 93.6699 69.9152 93.8203 69.6379 93.9414C69.3645 94.0586 69.0559 94.1172 68.7121 94.1172C68.2824 94.1172 67.9055 94.0332 67.5812 93.8652C67.2609 93.6973 67.0109 93.4727 66.8312 93.1914C66.6555 92.9062 66.5676 92.5879 66.5676 92.2363C66.5676 91.8965 66.634 91.5977 66.7668 91.3398C66.8996 91.0781 67.091 90.8613 67.341 90.6895C67.591 90.5137 67.8918 90.3809 68.2434 90.291C68.5949 90.2012 68.9875 90.1562 69.4211 90.1562H70.6809ZM77.0038 92.3184C77.0038 92.1621 76.9687 92.0176 76.8984 91.8848C76.832 91.748 76.6933 91.625 76.4823 91.5156C76.2753 91.4023 75.9628 91.3047 75.5448 91.2227C75.1933 91.1484 74.8749 91.0605 74.5898 90.959C74.3085 90.8574 74.0683 90.7344 73.8691 90.5898C73.6738 90.4453 73.5234 90.2754 73.4179 90.0801C73.3124 89.8848 73.2597 89.6562 73.2597 89.3945C73.2597 89.1445 73.3144 88.9082 73.4238 88.6855C73.537 88.4629 73.6952 88.2656 73.8984 88.0938C74.1054 87.9219 74.3534 87.7871 74.6425 87.6895C74.9316 87.5918 75.2538 87.543 75.6093 87.543C76.1171 87.543 76.5507 87.6328 76.9101 87.8125C77.2695 87.9922 77.5448 88.2324 77.7363 88.5332C77.9277 88.8301 78.0234 89.1602 78.0234 89.5234H76.9394C76.9394 89.3477 76.8866 89.1777 76.7812 89.0137C76.6796 88.8457 76.5292 88.707 76.33 88.5977C76.1347 88.4883 75.8945 88.4336 75.6093 88.4336C75.3085 88.4336 75.0644 88.4805 74.8769 88.5742C74.6933 88.6641 74.5585 88.7793 74.4726 88.9199C74.3905 89.0605 74.3495 89.209 74.3495 89.3652C74.3495 89.4824 74.3691 89.5879 74.4081 89.6816C74.4511 89.7715 74.5253 89.8555 74.6308 89.9336C74.7363 90.0078 74.8847 90.0781 75.0761 90.1445C75.2675 90.2109 75.5116 90.2773 75.8085 90.3438C76.328 90.4609 76.7558 90.6016 77.0917 90.7656C77.4277 90.9297 77.6777 91.1309 77.8417 91.3691C78.0058 91.6074 78.0878 91.8965 78.0878 92.2363C78.0878 92.5137 78.0292 92.7676 77.912 92.998C77.7988 93.2285 77.6327 93.4277 77.414 93.5957C77.1991 93.7598 76.9413 93.8887 76.6405 93.9824C76.3437 94.0723 76.0097 94.1172 75.6386 94.1172C75.08 94.1172 74.6073 94.0176 74.2206 93.8184C73.8339 93.6191 73.5409 93.3613 73.3417 93.0449C73.1425 92.7285 73.0429 92.3945 73.0429 92.043H74.1327C74.1484 92.3398 74.2343 92.5762 74.3905 92.752C74.5468 92.9238 74.7382 93.0469 74.9648 93.1211C75.1913 93.1914 75.4159 93.2266 75.6386 93.2266C75.9355 93.2266 76.1835 93.1875 76.3827 93.1094C76.5859 93.0312 76.7402 92.9238 76.8456 92.7871C76.9511 92.6504 77.0038 92.4941 77.0038 92.3184ZM85.0853 93.2266C85.3431 93.2266 85.5814 93.1738 85.8002 93.0684C86.0189 92.9629 86.1986 92.8184 86.3392 92.6348C86.4798 92.4473 86.5599 92.2344 86.5795 91.9961H87.6107C87.5912 92.3711 87.4642 92.7207 87.2298 93.0449C86.9994 93.3652 86.6966 93.625 86.3216 93.8242C85.9466 94.0195 85.5345 94.1172 85.0853 94.1172C84.6087 94.1172 84.1927 94.0332 83.8373 93.8652C83.4857 93.6973 83.1927 93.4668 82.9584 93.1738C82.7279 92.8809 82.5541 92.5449 82.4369 92.166C82.3236 91.7832 82.267 91.3789 82.267 90.9531V90.707C82.267 90.2812 82.3236 89.8789 82.4369 89.5C82.5541 89.1172 82.7279 88.7793 82.9584 88.4863C83.1927 88.1934 83.4857 87.9629 83.8373 87.7949C84.1927 87.627 84.6087 87.543 85.0853 87.543C85.5814 87.543 86.015 87.6445 86.3861 87.8477C86.7572 88.0469 87.0482 88.3203 87.2591 88.668C87.474 89.0117 87.5912 89.4023 87.6107 89.8398H86.5795C86.5599 89.5781 86.4857 89.3418 86.3568 89.1309C86.2318 88.9199 86.0599 88.752 85.8412 88.627C85.6263 88.498 85.3744 88.4336 85.0853 88.4336C84.7533 88.4336 84.474 88.5 84.2474 88.6328C84.0248 88.7617 83.847 88.9375 83.7142 89.1602C83.5853 89.3789 83.4916 89.623 83.433 89.8926C83.3783 90.1582 83.3509 90.4297 83.3509 90.707V90.9531C83.3509 91.2305 83.3783 91.5039 83.433 91.7734C83.4877 92.043 83.5795 92.2871 83.7084 92.5059C83.8412 92.7246 84.0189 92.9004 84.2416 93.0332C84.4681 93.1621 84.7494 93.2266 85.0853 93.2266ZM88.5723 90.9004V90.7656C88.5723 90.3086 88.6387 89.8848 88.7716 89.4941C88.9044 89.0996 89.0958 88.7578 89.3458 88.4688C89.5958 88.1758 89.8985 87.9492 90.254 87.7891C90.6095 87.625 91.0079 87.543 91.4493 87.543C91.8946 87.543 92.295 87.625 92.6505 87.7891C93.0098 87.9492 93.3145 88.1758 93.5645 88.4688C93.8184 88.7578 94.0118 89.0996 94.1446 89.4941C94.2774 89.8848 94.3438 90.3086 94.3438 90.7656V90.9004C94.3438 91.3574 94.2774 91.7812 94.1446 92.1719C94.0118 92.5625 93.8184 92.9043 93.5645 93.1973C93.3145 93.4863 93.0118 93.7129 92.6563 93.877C92.3048 94.0371 91.9063 94.1172 91.461 94.1172C91.0157 94.1172 90.6153 94.0371 90.2598 93.877C89.9044 93.7129 89.5997 93.4863 89.3458 93.1973C89.0958 92.9043 88.9044 92.5625 88.7716 92.1719C88.6387 91.7812 88.5723 91.3574 88.5723 90.9004ZM89.6563 90.7656V90.9004C89.6563 91.2168 89.6934 91.5156 89.7677 91.7969C89.8419 92.0742 89.9532 92.3203 90.1016 92.5352C90.254 92.75 90.4434 92.9199 90.67 93.0449C90.8966 93.166 91.1602 93.2266 91.461 93.2266C91.7579 93.2266 92.0177 93.166 92.2403 93.0449C92.4669 92.9199 92.6544 92.75 92.8028 92.5352C92.9512 92.3203 93.0626 92.0742 93.1368 91.7969C93.2149 91.5156 93.254 91.2168 93.254 90.9004V90.7656C93.254 90.4531 93.2149 90.1582 93.1368 89.8809C93.0626 89.5996 92.9493 89.3516 92.797 89.1367C92.6485 88.918 92.461 88.7461 92.2345 88.6211C92.0118 88.4961 91.7501 88.4336 91.4493 88.4336C91.1524 88.4336 90.8907 88.4961 90.6641 88.6211C90.4415 88.7461 90.254 88.918 90.1016 89.1367C89.9532 89.3516 89.8419 89.5996 89.7677 89.8809C89.6934 90.1582 89.6563 90.4531 89.6563 90.7656ZM96.8172 89.0137V94H95.7332V87.6602H96.7586L96.8172 89.0137ZM96.5594 90.5898L96.1082 90.5723C96.1121 90.1387 96.1766 89.7383 96.3016 89.3711C96.4266 89 96.6023 88.6777 96.8289 88.4043C97.0555 88.1309 97.325 87.9199 97.6375 87.7715C97.9539 87.6191 98.3035 87.543 98.6863 87.543C98.9988 87.543 99.2801 87.5859 99.5301 87.6719C99.7801 87.7539 99.993 87.8867 100.169 88.0703C100.348 88.2539 100.485 88.4922 100.579 88.7852C100.673 89.0742 100.72 89.4277 100.72 89.8457V94H99.6297V89.834C99.6297 89.502 99.5809 89.2363 99.4832 89.0371C99.3855 88.834 99.243 88.6875 99.0555 88.5977C98.868 88.5039 98.6375 88.457 98.3641 88.457C98.0945 88.457 97.8484 88.5137 97.6258 88.627C97.407 88.7402 97.2176 88.8965 97.0574 89.0957C96.9012 89.2949 96.7781 89.5234 96.6883 89.7812C96.6023 90.0352 96.5594 90.3047 96.5594 90.5898ZM106.087 92.3184C106.087 92.1621 106.052 92.0176 105.982 91.8848C105.916 91.748 105.777 91.625 105.566 91.5156C105.359 91.4023 105.046 91.3047 104.628 91.2227C104.277 91.1484 103.959 91.0605 103.673 90.959C103.392 90.8574 103.152 90.7344 102.953 90.5898C102.757 90.4453 102.607 90.2754 102.501 90.0801C102.396 89.8848 102.343 89.6562 102.343 89.3945C102.343 89.1445 102.398 88.9082 102.507 88.6855C102.621 88.4629 102.779 88.2656 102.982 88.0938C103.189 87.9219 103.437 87.7871 103.726 87.6895C104.015 87.5918 104.337 87.543 104.693 87.543C105.201 87.543 105.634 87.6328 105.994 87.8125C106.353 87.9922 106.628 88.2324 106.82 88.5332C107.011 88.8301 107.107 89.1602 107.107 89.5234H106.023C106.023 89.3477 105.97 89.1777 105.865 89.0137C105.763 88.8457 105.613 88.707 105.414 88.5977C105.218 88.4883 104.978 88.4336 104.693 88.4336C104.392 88.4336 104.148 88.4805 103.96 88.5742C103.777 88.6641 103.642 88.7793 103.556 88.9199C103.474 89.0605 103.433 89.209 103.433 89.3652C103.433 89.4824 103.453 89.5879 103.492 89.6816C103.535 89.7715 103.609 89.8555 103.714 89.9336C103.82 90.0078 103.968 90.0781 104.16 90.1445C104.351 90.2109 104.595 90.2773 104.892 90.3438C105.412 90.4609 105.839 90.6016 106.175 90.7656C106.511 90.9297 106.761 91.1309 106.925 91.3691C107.089 91.6074 107.171 91.8965 107.171 92.2363C107.171 92.5137 107.113 92.7676 106.996 92.998C106.882 93.2285 106.716 93.4277 106.498 93.5957C106.283 93.7598 106.025 93.8887 105.724 93.9824C105.427 94.0723 105.093 94.1172 104.722 94.1172C104.164 94.1172 103.691 94.0176 103.304 93.8184C102.917 93.6191 102.625 93.3613 102.425 93.0449C102.226 92.7285 102.126 92.3945 102.126 92.043H103.216C103.232 92.3398 103.318 92.5762 103.474 92.752C103.63 92.9238 103.822 93.0469 104.048 93.1211C104.275 93.1914 104.5 93.2266 104.722 93.2266C105.019 93.2266 105.267 93.1875 105.466 93.1094C105.669 93.0312 105.824 92.9238 105.929 92.7871C106.035 92.6504 106.087 92.4941 106.087 92.3184ZM111.28 87.6602V88.4922H107.852V87.6602H111.28ZM109.012 86.1191H110.096V92.4297C110.096 92.6445 110.129 92.8066 110.196 92.916C110.262 93.0254 110.348 93.0977 110.453 93.1328C110.559 93.168 110.672 93.1855 110.793 93.1855C110.883 93.1855 110.977 93.1777 111.074 93.1621C111.176 93.1426 111.252 93.127 111.303 93.1152L111.309 94C111.223 94.0273 111.11 94.0527 110.969 94.0762C110.832 94.1035 110.666 94.1172 110.471 94.1172C110.205 94.1172 109.961 94.0645 109.739 93.959C109.516 93.8535 109.338 93.6777 109.205 93.4316C109.076 93.1816 109.012 92.8457 109.012 92.4238V86.1191ZM116.319 92.916V89.6523C116.319 89.4023 116.269 89.1855 116.167 89.002C116.069 88.8145 115.921 88.6699 115.722 88.5684C115.522 88.4668 115.276 88.416 114.983 88.416C114.71 88.416 114.47 88.4629 114.263 88.5566C114.06 88.6504 113.899 88.7734 113.782 88.9258C113.669 89.0781 113.612 89.2422 113.612 89.418H112.528C112.528 89.1914 112.587 88.9668 112.704 88.7441C112.821 88.5215 112.989 88.3203 113.208 88.1406C113.431 87.957 113.696 87.8125 114.005 87.707C114.317 87.5977 114.665 87.543 115.048 87.543C115.509 87.543 115.915 87.6211 116.267 87.7773C116.622 87.9336 116.899 88.1699 117.099 88.4863C117.302 88.7988 117.403 89.1914 117.403 89.6641V92.6172C117.403 92.8281 117.421 93.0527 117.456 93.291C117.495 93.5293 117.552 93.7344 117.626 93.9062V94H116.495C116.44 93.875 116.397 93.709 116.366 93.502C116.335 93.291 116.319 93.0957 116.319 92.916ZM116.507 90.1562L116.519 90.918H115.423C115.114 90.918 114.839 90.9434 114.597 90.9941C114.354 91.041 114.151 91.1133 113.987 91.2109C113.823 91.3086 113.698 91.4316 113.612 91.5801C113.526 91.7246 113.483 91.8945 113.483 92.0898C113.483 92.2891 113.528 92.4707 113.618 92.6348C113.708 92.7988 113.843 92.9297 114.022 93.0273C114.206 93.1211 114.431 93.168 114.696 93.168C115.028 93.168 115.321 93.0977 115.575 92.957C115.829 92.8164 116.03 92.6445 116.179 92.4414C116.331 92.2383 116.413 92.041 116.425 91.8496L116.888 92.3711C116.86 92.5352 116.786 92.7168 116.665 92.916C116.544 93.1152 116.382 93.3066 116.179 93.4902C115.979 93.6699 115.741 93.8203 115.464 93.9414C115.19 94.0586 114.882 94.1172 114.538 94.1172C114.108 94.1172 113.731 94.0332 113.407 93.8652C113.087 93.6973 112.837 93.4727 112.657 93.1914C112.481 92.9062 112.394 92.5879 112.394 92.2363C112.394 91.8965 112.46 91.5977 112.593 91.3398C112.726 91.0781 112.917 90.8613 113.167 90.6895C113.417 90.5137 113.718 90.3809 114.069 90.291C114.421 90.2012 114.813 90.1562 115.247 90.1562H116.507ZM120.222 89.0137V94H119.138V87.6602H120.164L120.222 89.0137ZM119.965 90.5898L119.513 90.5723C119.517 90.1387 119.582 89.7383 119.707 89.3711C119.832 89 120.008 88.6777 120.234 88.4043C120.461 88.1309 120.73 87.9199 121.043 87.7715C121.359 87.6191 121.709 87.543 122.091 87.543C122.404 87.543 122.685 87.5859 122.935 87.6719C123.185 87.7539 123.398 87.8867 123.574 88.0703C123.754 88.2539 123.89 88.4922 123.984 88.7852C124.078 89.0742 124.125 89.4277 124.125 89.8457V94H123.035V89.834C123.035 89.502 122.986 89.2363 122.888 89.0371C122.791 88.834 122.648 88.6875 122.461 88.5977C122.273 88.5039 122.043 88.457 121.769 88.457C121.5 88.457 121.254 88.5137 121.031 88.627C120.812 88.7402 120.623 88.8965 120.463 89.0957C120.306 89.2949 120.183 89.5234 120.093 89.7812C120.008 90.0352 119.965 90.3047 119.965 90.5898ZM128.455 87.6602V88.4922H125.028V87.6602H128.455ZM126.188 86.1191H127.272V92.4297C127.272 92.6445 127.305 92.8066 127.371 92.916C127.438 93.0254 127.524 93.0977 127.629 93.1328C127.735 93.168 127.848 93.1855 127.969 93.1855C128.059 93.1855 128.153 93.1777 128.25 93.1621C128.352 93.1426 128.428 93.127 128.479 93.1152L128.485 94C128.399 94.0273 128.286 94.0527 128.145 94.0762C128.008 94.1035 127.842 94.1172 127.647 94.1172C127.381 94.1172 127.137 94.0645 126.914 93.959C126.692 93.8535 126.514 93.6777 126.381 93.4316C126.252 93.1816 126.188 92.8457 126.188 92.4238V86.1191ZM132.388 94.1172C131.946 94.1172 131.546 94.043 131.187 93.8945C130.831 93.7422 130.525 93.5293 130.267 93.2559C130.013 92.9824 129.818 92.6582 129.681 92.2832C129.544 91.9082 129.476 91.498 129.476 91.0527V90.8066C129.476 90.291 129.552 89.832 129.704 89.4297C129.857 89.0234 130.064 88.6797 130.325 88.3984C130.587 88.1172 130.884 87.9043 131.216 87.7598C131.548 87.6152 131.892 87.543 132.247 87.543C132.7 87.543 133.091 87.6211 133.419 87.7773C133.751 87.9336 134.023 88.1523 134.234 88.4336C134.444 88.7109 134.601 89.0391 134.702 89.418C134.804 89.793 134.855 90.2031 134.855 90.6484V91.1348H130.12V90.25H133.771V90.168C133.755 89.8867 133.696 89.6133 133.595 89.3477C133.497 89.082 133.341 88.8633 133.126 88.6914C132.911 88.5195 132.618 88.4336 132.247 88.4336C132.001 88.4336 131.775 88.4863 131.568 88.5918C131.36 88.6934 131.183 88.8457 131.034 89.0488C130.886 89.252 130.771 89.5 130.689 89.793C130.607 90.0859 130.566 90.4238 130.566 90.8066V91.0527C130.566 91.3535 130.607 91.6367 130.689 91.9023C130.775 92.1641 130.898 92.3945 131.058 92.5938C131.222 92.793 131.419 92.9492 131.65 93.0625C131.884 93.1758 132.15 93.2324 132.446 93.2324C132.829 93.2324 133.153 93.1543 133.419 92.998C133.685 92.8418 133.917 92.6328 134.116 92.3711L134.773 92.8926C134.636 93.0996 134.462 93.2969 134.251 93.4844C134.04 93.6719 133.78 93.8242 133.472 93.9414C133.167 94.0586 132.806 94.1172 132.388 94.1172ZM139.842 92.3184C139.842 92.1621 139.806 92.0176 139.736 91.8848C139.67 91.748 139.531 91.625 139.32 91.5156C139.113 91.4023 138.801 91.3047 138.383 91.2227C138.031 91.1484 137.713 91.0605 137.428 90.959C137.146 90.8574 136.906 90.7344 136.707 90.5898C136.512 90.4453 136.361 90.2754 136.256 90.0801C136.15 89.8848 136.098 89.6562 136.098 89.3945C136.098 89.1445 136.152 88.9082 136.262 88.6855C136.375 88.4629 136.533 88.2656 136.736 88.0938C136.943 87.9219 137.191 87.7871 137.48 87.6895C137.769 87.5918 138.092 87.543 138.447 87.543C138.955 87.543 139.389 87.6328 139.748 87.8125C140.107 87.9922 140.383 88.2324 140.574 88.5332C140.765 88.8301 140.861 89.1602 140.861 89.5234H139.777C139.777 89.3477 139.724 89.1777 139.619 89.0137C139.517 88.8457 139.367 88.707 139.168 88.5977C138.973 88.4883 138.732 88.4336 138.447 88.4336C138.146 88.4336 137.902 88.4805 137.715 88.5742C137.531 88.6641 137.396 88.7793 137.31 88.9199C137.228 89.0605 137.187 89.209 137.187 89.3652C137.187 89.4824 137.207 89.5879 137.246 89.6816C137.289 89.7715 137.363 89.8555 137.469 89.9336C137.574 90.0078 137.723 90.0781 137.914 90.1445C138.105 90.2109 138.349 90.2773 138.646 90.3438C139.166 90.4609 139.594 90.6016 139.93 90.7656C140.265 90.9297 140.515 91.1309 140.68 91.3691C140.844 91.6074 140.926 91.8965 140.926 92.2363C140.926 92.5137 140.867 92.7676 140.75 92.998C140.637 93.2285 140.471 93.4277 140.252 93.5957C140.037 93.7598 139.779 93.8887 139.478 93.9824C139.181 94.0723 138.848 94.1172 138.476 94.1172C137.918 94.1172 137.445 94.0176 137.058 93.8184C136.672 93.6191 136.379 93.3613 136.18 93.0449C135.98 92.7285 135.881 92.3945 135.881 92.043H136.971C136.986 92.3398 137.072 92.5762 137.228 92.752C137.385 92.9238 137.576 93.0469 137.803 93.1211C138.029 93.1914 138.254 93.2266 138.476 93.2266C138.773 93.2266 139.021 93.1875 139.221 93.1094C139.424 93.0312 139.578 92.9238 139.683 92.7871C139.789 92.6504 139.842 92.4941 139.842 92.3184Z" fill="#8D8B8B"/>
<g clip-path="url(#clip0_14_18)">
<path d="M13 53.9999L12 54.9999L14.2 58.0809C14.2926 58.2107 14.4149 58.3164 14.5567 58.3893C14.6984 58.4622 14.8556 58.5001 15.015 58.4999H15.085C15.2165 58.4998 15.3467 58.5257 15.4682 58.5759C15.5897 58.6262 15.7 58.7 15.793 58.7929L18.468 61.4679L15.851 64.1219C15.4034 63.9902 14.9312 63.9645 14.472 64.047C14.0128 64.1295 13.5791 64.3179 13.2053 64.5973C12.8315 64.8766 12.528 65.2391 12.3188 65.6562C12.1096 66.0733 12.0004 66.5333 12 66.9999C12.0006 67.4299 12.0936 67.8547 12.2727 68.2455C12.4518 68.6364 12.7128 68.9842 13.0381 69.2653C13.3634 69.5465 13.7453 69.7545 14.1579 69.8751C14.5706 69.9958 15.0043 70.0264 15.4298 69.9648C15.8554 69.9032 16.2626 69.7509 16.6241 69.5181C16.9856 69.2853 17.2928 68.9776 17.525 68.6157C17.7572 68.2539 17.9088 67.8463 17.9697 67.4207C18.0306 66.9951 17.9994 66.5614 17.878 66.1489L20.532 63.5319L21.5 64.4999L21.195 65.4139C21.1364 65.5901 21.128 65.7791 21.1707 65.9598C21.2135 66.1405 21.3057 66.3057 21.437 66.4369L24.707 69.7069C24.7997 69.8001 24.9098 69.8741 25.0311 69.9245C25.1525 69.975 25.2826 70.001 25.414 70.001C25.5454 70.001 25.6755 69.975 25.7969 69.9245C25.9182 69.8741 26.0283 69.8001 26.121 69.7069L27.707 68.1209C27.8002 68.0283 27.8741 67.9181 27.9246 67.7968C27.9751 67.6755 28.001 67.5453 28.001 67.4139C28.001 67.2825 27.9751 67.1524 27.9246 67.0311C27.8741 66.9098 27.8002 66.7996 27.707 66.7069L24.437 63.4369C24.3058 63.3056 24.1405 63.2134 23.9599 63.1707C23.7792 63.1279 23.5902 63.1363 23.414 63.1949L22.5 63.4999L21.54 62.5399L24.22 59.8969C24.6646 60.0156 25.1305 60.0306 25.5818 59.9408C26.0331 59.8509 26.4577 59.6586 26.8229 59.3787C27.1882 59.0988 27.4842 58.7387 27.6883 58.3263C27.8924 57.9139 27.999 57.4601 28 56.9999C28 56.7309 27.965 56.4699 27.898 56.2229L25.758 58.3639L24 57.9999L23.636 56.2429L25.777 54.1019C25.2677 53.965 24.7313 53.9647 24.2219 54.1012C23.7124 54.2377 23.248 54.506 22.8753 54.8792C22.5026 55.2523 22.2349 55.7172 22.0991 56.2268C21.9634 56.7364 21.9644 57.2728 22.102 57.7819L19.462 60.4599L16.793 57.7929C16.6055 57.6054 16.5001 57.3511 16.5 57.0859V57.0149C16.5 56.8557 16.462 56.6988 16.3891 56.5572C16.3162 56.4156 16.2106 56.2935 16.081 56.2009L13 53.9999ZM22.646 64.6459C22.6924 64.5994 22.7476 64.5624 22.8084 64.5372C22.8691 64.512 22.9342 64.499 23 64.499C23.0658 64.499 23.1309 64.512 23.1916 64.5372C23.2524 64.5624 23.3076 64.5994 23.354 64.6459L26.268 67.5609C26.3591 67.6552 26.4095 67.7815 26.4083 67.9126C26.4072 68.0437 26.3546 68.1691 26.2619 68.2619C26.1692 68.3546 26.0438 68.4071 25.9127 68.4083C25.7816 68.4094 25.6553 68.359 25.561 68.2679L22.646 65.3539C22.5994 65.3075 22.5625 65.2523 22.5373 65.1916C22.5121 65.1308 22.4991 65.0657 22.4991 64.9999C22.4991 64.9342 22.5121 64.8691 22.5373 64.8083C22.5625 64.7476 22.5994 64.6924 22.646 64.6459ZM15 64.9999L15.471 65.2419L16 65.2679L16.287 65.7129L16.732 65.9999L16.758 66.5289L17 66.9999L16.758 67.4709L16.732 67.9999L16.287 68.2869L16 68.7319L15.471 68.7579L15 68.9999L14.529 68.7579L14 68.7319L13.713 68.2869L13.268 67.9999L13.242 67.4709L13 66.9999L13.242 66.5289L13.268 65.9999L13.713 65.7129L14 65.2679L14.529 65.2419L15 64.9999Z" fill="#40B23D"/>
</g>
<defs>
<clipPath id="clip0_14_18">
<rect width="16" height="16" fill="white" transform="translate(12 54)"/>
</clipPath>
</defs>
</svg>
