<svg width="133" height="95" viewBox="0 0 133 95" fill="none" xmlns="http://www.w3.org/2000/svg">
<rect width="133" height="95" rx="20" fill="white" fill-opacity="0.95"/>
<path d="M43.0709 29.0234C43.0709 28.8203 43.0397 28.638 42.9772 28.4766C42.9199 28.3099 42.8105 28.1589 42.6491 28.0234C42.4876 27.8828 42.261 27.7448 41.9694 27.6094C41.6777 27.474 41.3001 27.3333 40.8366 27.1875C40.3209 27.0208 39.8314 26.8333 39.3678 26.625C38.9095 26.4167 38.5032 26.1745 38.1491 25.8984C37.8001 25.6172 37.5241 25.2917 37.3209 24.9219C37.123 24.5521 37.0241 24.1224 37.0241 23.6328C37.0241 23.1589 37.1282 22.7292 37.3366 22.3438C37.5449 21.9531 37.8366 21.6198 38.2116 21.3438C38.5866 21.0625 39.0293 20.8464 39.5397 20.6953C40.0553 20.5443 40.6204 20.4688 41.235 20.4688C42.0735 20.4688 42.8053 20.6198 43.4303 20.9219C44.0553 21.224 44.5397 21.638 44.8834 22.1641C45.2324 22.6901 45.4069 23.2917 45.4069 23.9688H43.0788C43.0788 23.6354 43.0084 23.3438 42.8678 23.0938C42.7324 22.8385 42.5241 22.638 42.2428 22.4922C41.9668 22.3464 41.6178 22.2734 41.1959 22.2734C40.7897 22.2734 40.4511 22.3359 40.1803 22.4609C39.9095 22.5807 39.7064 22.7448 39.5709 22.9531C39.4355 23.1562 39.3678 23.3854 39.3678 23.6406C39.3678 23.8333 39.4147 24.0078 39.5084 24.1641C39.6074 24.3203 39.7532 24.4661 39.9459 24.6016C40.1386 24.737 40.3756 24.8646 40.6569 24.9844C40.9381 25.1042 41.2636 25.2214 41.6334 25.3359C42.2532 25.5234 42.7975 25.7344 43.2663 25.9688C43.7402 26.2031 44.136 26.4661 44.4538 26.7578C44.7715 27.0495 45.011 27.3802 45.1725 27.75C45.334 28.1198 45.4147 28.5391 45.4147 29.0078C45.4147 29.5026 45.3183 29.9453 45.1256 30.3359C44.9329 30.7266 44.6543 31.0573 44.2897 31.3281C43.9251 31.599 43.4902 31.8047 42.985 31.9453C42.4798 32.0859 41.9147 32.1562 41.2897 32.1562C40.7272 32.1562 40.1725 32.0833 39.6256 31.9375C39.0788 31.7865 38.5814 31.5599 38.1334 31.2578C37.6907 30.9557 37.3366 30.5703 37.0709 30.1016C36.8053 29.6328 36.6725 29.0781 36.6725 28.4375H39.0241C39.0241 28.7917 39.0788 29.0911 39.1881 29.3359C39.2975 29.5807 39.4511 29.7786 39.6491 29.9297C39.8522 30.0807 40.0918 30.1901 40.3678 30.2578C40.6491 30.3255 40.9564 30.3594 41.2897 30.3594C41.6959 30.3594 42.0293 30.3021 42.2897 30.1875C42.5553 30.0729 42.7506 29.9141 42.8756 29.7109C43.0058 29.5078 43.0709 29.2786 43.0709 29.0234ZM53.3297 20.625H55.6656V28.1406C55.6656 29.0156 55.4781 29.7526 55.1031 30.3516C54.7333 30.9505 54.2203 31.401 53.5641 31.7031C52.913 32.0052 52.163 32.1562 51.3141 32.1562C50.4651 32.1562 49.7099 32.0052 49.0484 31.7031C48.3922 31.401 47.8766 30.9505 47.5016 30.3516C47.1318 29.7526 46.9469 29.0156 46.9469 28.1406V20.625H49.2906V28.1406C49.2906 28.651 49.3714 29.0677 49.5328 29.3906C49.6943 29.7135 49.926 29.9505 50.2281 30.1016C50.5354 30.2526 50.8974 30.3281 51.3141 30.3281C51.7411 30.3281 52.1031 30.2526 52.4 30.1016C52.7021 29.9505 52.9313 29.7135 53.0875 29.3906C53.249 29.0677 53.3297 28.651 53.3297 28.1406V20.625ZM62.065 27.9453H59.1666V26.1172H62.065C62.5129 26.1172 62.8775 26.0443 63.1588 25.8984C63.44 25.7474 63.6457 25.5391 63.7759 25.2734C63.9061 25.0078 63.9713 24.7083 63.9713 24.375C63.9713 24.0365 63.9061 23.7214 63.7759 23.4297C63.6457 23.138 63.44 22.9036 63.1588 22.7266C62.8775 22.5495 62.5129 22.4609 62.065 22.4609H59.9791V32H57.6353V20.625H62.065C62.9556 20.625 63.7186 20.7865 64.3541 21.1094C64.9947 21.4271 65.4843 21.8672 65.8228 22.4297C66.1614 22.9922 66.3306 23.6354 66.3306 24.3594C66.3306 25.0938 66.1614 25.7292 65.8228 26.2656C65.4843 26.8021 64.9947 27.2161 64.3541 27.5078C63.7186 27.7995 62.9556 27.9453 62.065 27.9453ZM77.3316 26.0469V26.5859C77.3316 27.4505 77.2144 28.2266 76.98 28.9141C76.7456 29.6016 76.4149 30.1875 75.9878 30.6719C75.5607 31.151 75.0503 31.5182 74.4566 31.7734C73.868 32.0286 73.2144 32.1562 72.4956 32.1562C71.7821 32.1562 71.1284 32.0286 70.5347 31.7734C69.9461 31.5182 69.4357 31.151 69.0034 30.6719C68.5711 30.1875 68.2352 29.6016 67.9956 28.9141C67.7613 28.2266 67.6441 27.4505 67.6441 26.5859V26.0469C67.6441 25.1771 67.7613 24.401 67.9956 23.7188C68.23 23.0312 68.5607 22.4453 68.9878 21.9609C69.4201 21.4766 69.9305 21.1068 70.5191 20.8516C71.1128 20.5964 71.7665 20.4688 72.48 20.4688C73.1988 20.4688 73.8524 20.5964 74.4409 20.8516C75.0347 21.1068 75.5451 21.4766 75.9722 21.9609C76.4045 22.4453 76.7378 23.0312 76.9722 23.7188C77.2118 24.401 77.3316 25.1771 77.3316 26.0469ZM74.9644 26.5859V26.0312C74.9644 25.4271 74.9097 24.8958 74.8003 24.4375C74.6909 23.9792 74.5295 23.5938 74.3159 23.2812C74.1024 22.9688 73.842 22.7344 73.5347 22.5781C73.2274 22.4167 72.8758 22.3359 72.48 22.3359C72.0842 22.3359 71.7326 22.4167 71.4253 22.5781C71.1232 22.7344 70.8654 22.9688 70.6519 23.2812C70.4435 23.5938 70.2847 23.9792 70.1753 24.4375C70.0659 24.8958 70.0113 25.4271 70.0113 26.0312V26.5859C70.0113 27.1849 70.0659 27.7161 70.1753 28.1797C70.2847 28.638 70.4461 29.026 70.6597 29.3438C70.8732 29.6562 71.1336 29.8932 71.4409 30.0547C71.7482 30.2161 72.0998 30.2969 72.4956 30.2969C72.8915 30.2969 73.243 30.2161 73.5503 30.0547C73.8576 29.8932 74.1154 29.6562 74.3238 29.3438C74.5321 29.026 74.6909 28.638 74.8003 28.1797C74.9097 27.7161 74.9644 27.1849 74.9644 26.5859ZM79.0591 20.625H83.3013C84.171 20.625 84.9184 20.7552 85.5434 21.0156C86.1736 21.276 86.658 21.6615 86.9966 22.1719C87.3351 22.6823 87.5044 23.3099 87.5044 24.0547C87.5044 24.6641 87.4002 25.1875 87.1919 25.625C86.9888 26.0573 86.6997 26.4193 86.3247 26.7109C85.9549 26.9974 85.52 27.2266 85.02 27.3984L84.2778 27.7891H80.5903L80.5747 25.9609H83.3169C83.7283 25.9609 84.0695 25.888 84.3403 25.7422C84.6111 25.5964 84.8143 25.3932 84.9497 25.1328C85.0903 24.8724 85.1606 24.5703 85.1606 24.2266C85.1606 23.862 85.0929 23.5469 84.9575 23.2812C84.8221 23.0156 84.6164 22.8125 84.3403 22.6719C84.0643 22.5312 83.7179 22.4609 83.3013 22.4609H81.4028V32H79.0591V20.625ZM85.4184 32L82.8247 26.9297L85.3013 26.9141L87.9263 31.8906V32H85.4184ZM93.9662 20.625V32H91.6303V20.625H93.9662ZM97.4662 20.625V22.4609H88.185V20.625H97.4662ZM106.475 30.1719V32H100.42V30.1719H106.475ZM101.186 20.625V32H98.8422V20.625H101.186ZM105.686 25.2578V27.0391H100.42V25.2578H105.686ZM106.467 20.625V22.4609H100.42V20.625H106.467ZM45.4625 45.2578V47.0859H39.525V45.2578H45.4625ZM40.2203 40.625V52H37.8766V40.625H40.2203ZM47.1344 40.625V52H44.7984V40.625H47.1344ZM55.4947 40.625H57.8306V48.1406C57.8306 49.0156 57.6431 49.7526 57.2681 50.3516C56.8983 50.9505 56.3853 51.401 55.7291 51.7031C55.078 52.0052 54.328 52.1562 53.4791 52.1562C52.6301 52.1562 51.8749 52.0052 51.2134 51.7031C50.5572 51.401 50.0416 50.9505 49.6666 50.3516C49.2968 49.7526 49.1119 49.0156 49.1119 48.1406V40.625H51.4556V48.1406C51.4556 48.651 51.5364 49.0677 51.6978 49.3906C51.8593 49.7135 52.091 49.9505 52.3931 50.1016C52.7004 50.2526 53.0624 50.3281 53.4791 50.3281C53.9061 50.3281 54.2681 50.2526 54.565 50.1016C54.8671 49.9505 55.0963 49.7135 55.2525 49.3906C55.414 49.0677 55.4947 48.651 55.4947 48.1406V40.625ZM60.8706 40.625H62.855L65.7769 48.9766L68.6988 40.625H70.6831L66.5738 52H64.98L60.8706 40.625ZM59.8003 40.625H61.7769L62.1363 48.7656V52H59.8003V40.625ZM69.7769 40.625H71.7613V52H69.4175V48.7656L69.7769 40.625ZM78.6216 42.5703L75.5278 52H73.0356L77.2622 40.625H78.8481L78.6216 42.5703ZM81.1919 52L78.0903 42.5703L77.8403 40.625H79.4419L83.6919 52H81.1919ZM81.0513 47.7656V49.6016H75.0434V47.7656H81.0513ZM94.0444 40.625V52H91.7006L87.1303 44.375V52H84.7866V40.625H87.1303L91.7084 48.2578V40.625H94.0444ZM105.467 46.0469V46.5859C105.467 47.4505 105.35 48.2266 105.116 48.9141C104.881 49.6016 104.551 50.1875 104.123 50.6719C103.696 51.151 103.186 51.5182 102.592 51.7734C102.004 52.0286 101.35 52.1562 100.631 52.1562C99.9177 52.1562 99.2641 52.0286 98.6703 51.7734C98.0818 51.5182 97.5714 51.151 97.1391 50.6719C96.7068 50.1875 96.3708 49.6016 96.1313 48.9141C95.8969 48.2266 95.7797 47.4505 95.7797 46.5859V46.0469C95.7797 45.1771 95.8969 44.401 96.1313 43.7188C96.3656 43.0312 96.6964 42.4453 97.1234 41.9609C97.5557 41.4766 98.0662 41.1068 98.6547 40.8516C99.2484 40.5964 99.9021 40.4688 100.616 40.4688C101.334 40.4688 101.988 40.5964 102.577 40.8516C103.17 41.1068 103.681 41.4766 104.108 41.9609C104.54 42.4453 104.873 43.0312 105.108 43.7188C105.347 44.401 105.467 45.1771 105.467 46.0469ZM103.1 46.5859V46.0312C103.1 45.4271 103.045 44.8958 102.936 44.4375C102.827 43.9792 102.665 43.5938 102.452 43.2812C102.238 42.9688 101.978 42.7344 101.67 42.5781C101.363 42.4167 101.011 42.3359 100.616 42.3359C100.22 42.3359 99.8682 42.4167 99.5609 42.5781C99.2589 42.7344 99.001 42.9688 98.7875 43.2812C98.5792 43.5938 98.4203 43.9792 98.3109 44.4375C98.2016 44.8958 98.1469 45.4271 98.1469 46.0312V46.5859C98.1469 47.1849 98.2016 47.7161 98.3109 48.1797C98.4203 48.638 98.5818 49.026 98.7953 49.3438C99.0089 49.6562 99.2693 49.8932 99.5766 50.0547C99.8839 50.2161 100.235 50.2969 100.631 50.2969C101.027 50.2969 101.379 50.2161 101.686 50.0547C101.993 49.8932 102.251 49.6562 102.459 49.3438C102.668 49.026 102.827 48.638 102.936 48.1797C103.045 47.7161 103.1 47.1849 103.1 46.5859Z" fill="#020441"/>
<path d="M27.3766 69.8438C27.3766 69.6445 27.3453 69.4688 27.2828 69.3164C27.2242 69.1602 27.1188 69.0195 26.9664 68.8945C26.818 68.7695 26.6109 68.6504 26.3453 68.5371C26.0836 68.4238 25.7516 68.3086 25.3492 68.1914C24.9273 68.0664 24.5465 67.9277 24.2066 67.7754C23.8668 67.6191 23.5758 67.4414 23.3336 67.2422C23.0914 67.043 22.9059 66.8145 22.777 66.5566C22.648 66.2988 22.5836 66.0039 22.5836 65.6719C22.5836 65.3398 22.652 65.0332 22.7887 64.752C22.9254 64.4707 23.1207 64.2266 23.3746 64.0195C23.6324 63.8086 23.9391 63.6445 24.2945 63.5273C24.65 63.4102 25.0465 63.3516 25.484 63.3516C26.1246 63.3516 26.6676 63.4746 27.1129 63.7207C27.5621 63.9629 27.9039 64.2812 28.1383 64.6758C28.3727 65.0664 28.4898 65.4844 28.4898 65.9297H27.3648C27.3648 65.6094 27.2965 65.3262 27.1598 65.0801C27.023 64.8301 26.816 64.6348 26.5387 64.4941C26.2613 64.3496 25.9098 64.2773 25.484 64.2773C25.0816 64.2773 24.7496 64.3379 24.4879 64.459C24.2262 64.5801 24.0309 64.7441 23.902 64.9512C23.777 65.1582 23.7145 65.3945 23.7145 65.6602C23.7145 65.8398 23.7516 66.0039 23.8258 66.1523C23.9039 66.2969 24.023 66.4316 24.1832 66.5566C24.3473 66.6816 24.5543 66.7969 24.8043 66.9023C25.0582 67.0078 25.3609 67.1094 25.7125 67.207C26.1969 67.3438 26.6148 67.4961 26.9664 67.6641C27.318 67.832 27.607 68.0215 27.8336 68.2324C28.0641 68.4395 28.234 68.6758 28.3434 68.9414C28.4566 69.2031 28.5133 69.5 28.5133 69.832C28.5133 70.1797 28.443 70.4941 28.3023 70.7754C28.1617 71.0566 27.9605 71.2969 27.6988 71.4961C27.4371 71.6953 27.1227 71.8496 26.7555 71.959C26.3922 72.0645 25.9859 72.1172 25.5367 72.1172C25.1422 72.1172 24.7535 72.0625 24.3707 71.9531C23.9918 71.8438 23.6461 71.6797 23.3336 71.4609C23.025 71.2422 22.777 70.9727 22.5895 70.6523C22.4059 70.3281 22.3141 69.9531 22.3141 69.5273H23.4391C23.4391 69.8203 23.4957 70.0723 23.609 70.2832C23.7223 70.4902 23.8766 70.6621 24.0719 70.7988C24.2711 70.9355 24.4957 71.0371 24.7457 71.1035C24.9996 71.166 25.2633 71.1973 25.5367 71.1973C25.9313 71.1973 26.2652 71.1426 26.5387 71.0332C26.8121 70.9238 27.0191 70.7676 27.1598 70.5645C27.3043 70.3613 27.3766 70.1211 27.3766 69.8438ZM32.4515 72.1172C32.0101 72.1172 31.6097 72.043 31.2503 71.8945C30.8948 71.7422 30.5882 71.5293 30.3304 71.2559C30.0765 70.9824 29.8812 70.6582 29.7445 70.2832C29.6077 69.9082 29.5394 69.498 29.5394 69.0527V68.8066C29.5394 68.291 29.6155 67.832 29.7679 67.4297C29.9202 67.0234 30.1273 66.6797 30.389 66.3984C30.6507 66.1172 30.9476 65.9043 31.2796 65.7598C31.6116 65.6152 31.9554 65.543 32.3109 65.543C32.764 65.543 33.1546 65.6211 33.4827 65.7773C33.8148 65.9336 34.0863 66.1523 34.2972 66.4336C34.5081 66.7109 34.6644 67.0391 34.7659 67.418C34.8675 67.793 34.9183 68.2031 34.9183 68.6484V69.1348H30.1839V68.25H33.8343V68.168C33.8187 67.8867 33.7601 67.6133 33.6585 67.3477C33.5609 67.082 33.4046 66.8633 33.1898 66.6914C32.9749 66.5195 32.682 66.4336 32.3109 66.4336C32.0648 66.4336 31.8382 66.4863 31.6312 66.5918C31.4241 66.6934 31.2464 66.8457 31.098 67.0488C30.9495 67.252 30.8343 67.5 30.7523 67.793C30.6702 68.0859 30.6292 68.4238 30.6292 68.8066V69.0527C30.6292 69.3535 30.6702 69.6367 30.7523 69.9023C30.8382 70.1641 30.9613 70.3945 31.1214 70.5938C31.2855 70.793 31.4827 70.9492 31.7132 71.0625C31.9476 71.1758 32.2132 71.2324 32.5101 71.2324C32.8929 71.2324 33.2171 71.1543 33.4827 70.998C33.7484 70.8418 33.9808 70.6328 34.18 70.3711L34.8363 70.8926C34.6995 71.0996 34.5257 71.2969 34.3148 71.4844C34.1038 71.6719 33.8441 71.8242 33.5355 71.9414C33.2308 72.0586 32.8695 72.1172 32.4515 72.1172ZM40.3213 65.6602H41.3057V71.8652C41.3057 72.4238 41.1924 72.9004 40.9659 73.2949C40.7393 73.6895 40.4229 73.9883 40.0166 74.1914C39.6143 74.3984 39.1495 74.502 38.6221 74.502C38.4034 74.502 38.1455 74.4668 37.8487 74.3965C37.5557 74.3301 37.2666 74.2148 36.9815 74.0508C36.7002 73.8906 36.4639 73.6738 36.2725 73.4004L36.8409 72.7559C37.1065 73.0762 37.3838 73.2988 37.6729 73.4238C37.9659 73.5488 38.2549 73.6113 38.5401 73.6113C38.8838 73.6113 39.1807 73.5469 39.4307 73.418C39.6807 73.2891 39.8741 73.0977 40.0108 72.8438C40.1514 72.5938 40.2217 72.2852 40.2217 71.918V67.0547L40.3213 65.6602ZM35.9561 68.9004V68.7773C35.9561 68.293 36.0127 67.8535 36.126 67.459C36.2432 67.0605 36.4092 66.7188 36.6241 66.4336C36.8428 66.1484 37.1065 65.9297 37.4151 65.7773C37.7237 65.6211 38.0713 65.543 38.458 65.543C38.8565 65.543 39.2041 65.6133 39.501 65.7539C39.8018 65.8906 40.0557 66.0918 40.2627 66.3574C40.4737 66.6191 40.6397 66.9355 40.7608 67.3066C40.8819 67.6777 40.9659 68.0977 41.0127 68.5664V69.1055C40.9698 69.5703 40.8858 69.9883 40.7608 70.3594C40.6397 70.7305 40.4737 71.0469 40.2627 71.3086C40.0557 71.5703 39.8018 71.7715 39.501 71.9121C39.2002 72.0488 38.8487 72.1172 38.4463 72.1172C38.0674 72.1172 37.7237 72.0371 37.4151 71.877C37.1104 71.7168 36.8487 71.4922 36.6299 71.2031C36.4112 70.9141 36.2432 70.5742 36.126 70.1836C36.0127 69.7891 35.9561 69.3613 35.9561 68.9004ZM37.0401 68.7773V68.9004C37.0401 69.2168 37.0713 69.5137 37.1338 69.791C37.2002 70.0684 37.2998 70.3125 37.4327 70.5234C37.5694 70.7344 37.7432 70.9004 37.9541 71.0215C38.1651 71.1387 38.417 71.1973 38.71 71.1973C39.0694 71.1973 39.3663 71.1211 39.6006 70.9688C39.835 70.8164 40.0205 70.6152 40.1573 70.3652C40.2979 70.1152 40.4073 69.8438 40.4854 69.5508V68.1387C40.4424 67.9238 40.376 67.7168 40.2862 67.5176C40.2002 67.3145 40.087 67.1348 39.9463 66.9785C39.8096 66.8184 39.6397 66.6914 39.4366 66.5977C39.2334 66.5039 38.9952 66.457 38.7217 66.457C38.4248 66.457 38.169 66.5195 37.9541 66.6445C37.7432 66.7656 37.5694 66.9336 37.4327 67.1484C37.2998 67.3594 37.2002 67.6055 37.1338 67.8867C37.0713 68.1641 37.0401 68.4609 37.0401 68.7773ZM46.8611 70.5352V65.6602H47.9509V72H46.9138L46.8611 70.5352ZM47.0662 69.1992L47.5173 69.1875C47.5173 69.6094 47.4724 70 47.3826 70.3594C47.2966 70.7148 47.156 71.0234 46.9607 71.2852C46.7654 71.5469 46.5095 71.752 46.1931 71.9004C45.8767 72.0449 45.492 72.1172 45.0388 72.1172C44.7302 72.1172 44.447 72.0723 44.1892 71.9824C43.9353 71.8926 43.7166 71.7539 43.533 71.5664C43.3494 71.3789 43.2068 71.1348 43.1052 70.834C43.0076 70.5332 42.9588 70.1719 42.9588 69.75V65.6602H44.0427V69.7617C44.0427 70.0469 44.074 70.2832 44.1365 70.4707C44.2029 70.6543 44.2908 70.8008 44.4002 70.9102C44.5134 71.0156 44.6384 71.0898 44.7752 71.1328C44.9158 71.1758 45.0603 71.1973 45.2088 71.1973C45.6697 71.1973 46.0349 71.1094 46.3045 70.9336C46.574 70.7539 46.7673 70.5137 46.8845 70.2129C47.0056 69.9082 47.0662 69.5703 47.0662 69.1992ZM50.7173 67.0137V72H49.6333V65.6602H50.6587L50.7173 67.0137ZM50.4595 68.5898L50.0083 68.5723C50.0122 68.1387 50.0766 67.7383 50.2016 67.3711C50.3266 67 50.5024 66.6777 50.729 66.4043C50.9555 66.1309 51.2251 65.9199 51.5376 65.7715C51.854 65.6191 52.2036 65.543 52.5864 65.543C52.8989 65.543 53.1802 65.5859 53.4302 65.6719C53.6802 65.7539 53.893 65.8867 54.0688 66.0703C54.2485 66.2539 54.3852 66.4922 54.479 66.7852C54.5727 67.0742 54.6196 67.4277 54.6196 67.8457V72H53.5298V67.834C53.5298 67.502 53.4809 67.2363 53.3833 67.0371C53.2856 66.834 53.143 66.6875 52.9555 66.5977C52.768 66.5039 52.5376 66.457 52.2641 66.457C51.9946 66.457 51.7485 66.5137 51.5259 66.627C51.3071 66.7402 51.1177 66.8965 50.9575 67.0957C50.8013 67.2949 50.6782 67.5234 50.5884 67.7812C50.5024 68.0352 50.4595 68.3047 50.4595 68.5898ZM60.2922 70.7695V63H61.382V72H60.3859L60.2922 70.7695ZM56.0266 68.9004V68.7773C56.0266 68.293 56.0852 67.8535 56.2023 67.459C56.3234 67.0605 56.4934 66.7188 56.7121 66.4336C56.9348 66.1484 57.1984 65.9297 57.5031 65.7773C57.8117 65.6211 58.1555 65.543 58.5344 65.543C58.9328 65.543 59.2805 65.6133 59.5773 65.7539C59.8781 65.8906 60.132 66.0918 60.3391 66.3574C60.55 66.6191 60.716 66.9355 60.8371 67.3066C60.9582 67.6777 61.0422 68.0977 61.0891 68.5664V69.1055C61.0461 69.5703 60.9621 69.9883 60.8371 70.3594C60.716 70.7305 60.55 71.0469 60.3391 71.3086C60.132 71.5703 59.8781 71.7715 59.5773 71.9121C59.2766 72.0488 58.925 72.1172 58.5227 72.1172C58.1516 72.1172 57.8117 72.0371 57.5031 71.877C57.1984 71.7168 56.9348 71.4922 56.7121 71.2031C56.4934 70.9141 56.3234 70.5742 56.2023 70.1836C56.0852 69.7891 56.0266 69.3613 56.0266 68.9004ZM57.1164 68.7773V68.9004C57.1164 69.2168 57.1477 69.5137 57.2102 69.791C57.2766 70.0684 57.3781 70.3125 57.5148 70.5234C57.6516 70.7344 57.8254 70.9004 58.0363 71.0215C58.2473 71.1387 58.4992 71.1973 58.7922 71.1973C59.1516 71.1973 59.4465 71.1211 59.677 70.9688C59.9113 70.8164 60.0988 70.6152 60.2395 70.3652C60.3801 70.1152 60.4895 69.8438 60.5676 69.5508V68.1387C60.5207 67.9238 60.4523 67.7168 60.3625 67.5176C60.2766 67.3145 60.1633 67.1348 60.0227 66.9785C59.8859 66.8184 59.716 66.6914 59.5129 66.5977C59.3137 66.5039 59.0773 66.457 58.8039 66.457C58.507 66.457 58.2512 66.5195 58.0363 66.6445C57.8254 66.7656 57.6516 66.9336 57.5148 67.1484C57.3781 67.3594 57.2766 67.6055 57.2102 67.8867C57.1477 68.1641 57.1164 68.4609 57.1164 68.7773ZM66.8378 70.916V67.6523C66.8378 67.4023 66.787 67.1855 66.6855 67.002C66.5878 66.8145 66.4394 66.6699 66.2402 66.5684C66.0409 66.4668 65.7948 66.416 65.5019 66.416C65.2284 66.416 64.9882 66.4629 64.7812 66.5566C64.578 66.6504 64.4179 66.7734 64.3007 66.9258C64.1874 67.0781 64.1308 67.2422 64.1308 67.418H63.0468C63.0468 67.1914 63.1054 66.9668 63.2226 66.7441C63.3398 66.5215 63.5077 66.3203 63.7265 66.1406C63.9491 65.957 64.2148 65.8125 64.5234 65.707C64.8359 65.5977 65.1835 65.543 65.5663 65.543C66.0273 65.543 66.4335 65.6211 66.7851 65.7773C67.1405 65.9336 67.4179 66.1699 67.6171 66.4863C67.8202 66.7988 67.9218 67.1914 67.9218 67.6641V70.6172C67.9218 70.8281 67.9394 71.0527 67.9745 71.291C68.0136 71.5293 68.0702 71.7344 68.1445 71.9062V72H67.0136C66.9589 71.875 66.9159 71.709 66.8847 71.502C66.8534 71.291 66.8378 71.0957 66.8378 70.916ZM67.0253 68.1562L67.037 68.918H65.9413C65.6327 68.918 65.3573 68.9434 65.1152 68.9941C64.873 69.041 64.6698 69.1133 64.5058 69.2109C64.3417 69.3086 64.2167 69.4316 64.1308 69.5801C64.0448 69.7246 64.0019 69.8945 64.0019 70.0898C64.0019 70.2891 64.0468 70.4707 64.1366 70.6348C64.2265 70.7988 64.3613 70.9297 64.5409 71.0273C64.7245 71.1211 64.9491 71.168 65.2148 71.168C65.5468 71.168 65.8398 71.0977 66.0937 70.957C66.3476 70.8164 66.5488 70.6445 66.6972 70.4414C66.8495 70.2383 66.9316 70.041 66.9433 69.8496L67.4062 70.3711C67.3788 70.5352 67.3046 70.7168 67.1835 70.916C67.0624 71.1152 66.9003 71.3066 66.6972 71.4902C66.498 71.6699 66.2597 71.8203 65.9823 71.9414C65.7089 72.0586 65.4003 72.1172 65.0566 72.1172C64.6269 72.1172 64.2499 72.0332 63.9257 71.8652C63.6054 71.6973 63.3554 71.4727 63.1757 71.1914C62.9999 70.9062 62.912 70.5879 62.912 70.2363C62.912 69.8965 62.9784 69.5977 63.1113 69.3398C63.2441 69.0781 63.4355 68.8613 63.6855 68.6895C63.9355 68.5137 64.2363 68.3809 64.5878 68.291C64.9394 68.2012 65.332 68.1562 65.7655 68.1562H67.0253ZM76.4017 70.916V67.6523C76.4017 67.4023 76.3509 67.1855 76.2494 67.002C76.1517 66.8145 76.0033 66.6699 75.8041 66.5684C75.6048 66.4668 75.3588 66.416 75.0658 66.416C74.7923 66.416 74.5521 66.4629 74.3451 66.5566C74.142 66.6504 73.9818 66.7734 73.8646 66.9258C73.7513 67.0781 73.6947 67.2422 73.6947 67.418H72.6107C72.6107 67.1914 72.6693 66.9668 72.7865 66.7441C72.9037 66.5215 73.0716 66.3203 73.2904 66.1406C73.5131 65.957 73.7787 65.8125 74.0873 65.707C74.3998 65.5977 74.7474 65.543 75.1302 65.543C75.5912 65.543 75.9974 65.6211 76.349 65.7773C76.7045 65.9336 76.9818 66.1699 77.181 66.4863C77.3841 66.7988 77.4857 67.1914 77.4857 67.6641V70.6172C77.4857 70.8281 77.5033 71.0527 77.5384 71.291C77.5775 71.5293 77.6341 71.7344 77.7084 71.9062V72H76.5775C76.5228 71.875 76.4798 71.709 76.4486 71.502C76.4173 71.291 76.4017 71.0957 76.4017 70.916ZM76.5892 68.1562L76.6009 68.918H75.5052C75.1966 68.918 74.9213 68.9434 74.6791 68.9941C74.4369 69.041 74.2338 69.1133 74.0697 69.2109C73.9056 69.3086 73.7806 69.4316 73.6947 69.5801C73.6088 69.7246 73.5658 69.8945 73.5658 70.0898C73.5658 70.2891 73.6107 70.4707 73.7006 70.6348C73.7904 70.7988 73.9252 70.9297 74.1048 71.0273C74.2884 71.1211 74.5131 71.168 74.7787 71.168C75.1107 71.168 75.4037 71.0977 75.6576 70.957C75.9115 70.8164 76.1127 70.6445 76.2611 70.4414C76.4134 70.2383 76.4955 70.041 76.5072 69.8496L76.9701 70.3711C76.9427 70.5352 76.8685 70.7168 76.7474 70.916C76.6263 71.1152 76.4642 71.3066 76.2611 71.4902C76.0619 71.6699 75.8236 71.8203 75.5463 71.9414C75.2728 72.0586 74.9642 72.1172 74.6205 72.1172C74.1908 72.1172 73.8138 72.0332 73.4896 71.8652C73.1693 71.6973 72.9193 71.4727 72.7396 71.1914C72.5638 70.9062 72.4759 70.5879 72.4759 70.2363C72.4759 69.8965 72.5423 69.5977 72.6752 69.3398C72.808 69.0781 72.9994 68.8613 73.2494 68.6895C73.4994 68.5137 73.8002 68.3809 74.1517 68.291C74.5033 68.2012 74.8959 68.1562 75.3295 68.1562H76.5892ZM85.9188 70.3184C85.9188 70.1621 85.8836 70.0176 85.8133 69.8848C85.7469 69.748 85.6082 69.625 85.3973 69.5156C85.1902 69.4023 84.8777 69.3047 84.4598 69.2227C84.1082 69.1484 83.7898 69.0605 83.5047 68.959C83.2234 68.8574 82.9832 68.7344 82.784 68.5898C82.5887 68.4453 82.4383 68.2754 82.3328 68.0801C82.2273 67.8848 82.1746 67.6562 82.1746 67.3945C82.1746 67.1445 82.2293 66.9082 82.3387 66.6855C82.452 66.4629 82.6102 66.2656 82.8133 66.0938C83.0203 65.9219 83.2684 65.7871 83.5574 65.6895C83.8465 65.5918 84.1688 65.543 84.5242 65.543C85.032 65.543 85.4656 65.6328 85.825 65.8125C86.1844 65.9922 86.4598 66.2324 86.6512 66.5332C86.8426 66.8301 86.9383 67.1602 86.9383 67.5234H85.8543C85.8543 67.3477 85.8016 67.1777 85.6961 67.0137C85.5945 66.8457 85.4441 66.707 85.2449 66.5977C85.0496 66.4883 84.8094 66.4336 84.5242 66.4336C84.2234 66.4336 83.9793 66.4805 83.7918 66.5742C83.6082 66.6641 83.4734 66.7793 83.3875 66.9199C83.3055 67.0605 83.2645 67.209 83.2645 67.3652C83.2645 67.4824 83.284 67.5879 83.323 67.6816C83.366 67.7715 83.4402 67.8555 83.5457 67.9336C83.6512 68.0078 83.7996 68.0781 83.991 68.1445C84.1824 68.2109 84.4266 68.2773 84.7234 68.3438C85.243 68.4609 85.6707 68.6016 86.0066 68.7656C86.3426 68.9297 86.5926 69.1309 86.7566 69.3691C86.9207 69.6074 87.0027 69.8965 87.0027 70.2363C87.0027 70.5137 86.9441 70.7676 86.827 70.998C86.7137 71.2285 86.5477 71.4277 86.3289 71.5957C86.1141 71.7598 85.8563 71.8887 85.5555 71.9824C85.2586 72.0723 84.9246 72.1172 84.5535 72.1172C83.9949 72.1172 83.5223 72.0176 83.1355 71.8184C82.7488 71.6191 82.4559 71.3613 82.2566 71.0449C82.0574 70.7285 81.9578 70.3945 81.9578 70.043H83.0477C83.0633 70.3398 83.1492 70.5762 83.3055 70.752C83.4617 70.9238 83.6531 71.0469 83.8797 71.1211C84.1063 71.1914 84.3309 71.2266 84.5535 71.2266C84.8504 71.2266 85.0984 71.1875 85.2977 71.1094C85.5008 71.0312 85.6551 70.9238 85.7605 70.7871C85.866 70.6504 85.9188 70.4941 85.9188 70.3184ZM92.1948 70.916V67.6523C92.1948 67.4023 92.1441 67.1855 92.0425 67.002C91.9448 66.8145 91.7964 66.6699 91.5972 66.5684C91.398 66.4668 91.1519 66.416 90.8589 66.416C90.5855 66.416 90.3452 66.4629 90.1382 66.5566C89.9351 66.6504 89.7749 66.7734 89.6577 66.9258C89.5445 67.0781 89.4878 67.2422 89.4878 67.418H88.4038C88.4038 67.1914 88.4624 66.9668 88.5796 66.7441C88.6968 66.5215 88.8648 66.3203 89.0835 66.1406C89.3062 65.957 89.5718 65.8125 89.8804 65.707C90.1929 65.5977 90.5406 65.543 90.9234 65.543C91.3843 65.543 91.7906 65.6211 92.1421 65.7773C92.4976 65.9336 92.7749 66.1699 92.9741 66.4863C93.1773 66.7988 93.2788 67.1914 93.2788 67.6641V70.6172C93.2788 70.8281 93.2964 71.0527 93.3316 71.291C93.3706 71.5293 93.4273 71.7344 93.5015 71.9062V72H92.3706C92.3159 71.875 92.273 71.709 92.2417 71.502C92.2105 71.291 92.1948 71.0957 92.1948 70.916ZM92.3823 68.1562L92.3941 68.918H91.2984C90.9898 68.918 90.7144 68.9434 90.4722 68.9941C90.23 69.041 90.0269 69.1133 89.8628 69.2109C89.6988 69.3086 89.5738 69.4316 89.4878 69.5801C89.4019 69.7246 89.3589 69.8945 89.3589 70.0898C89.3589 70.2891 89.4038 70.4707 89.4937 70.6348C89.5835 70.7988 89.7183 70.9297 89.898 71.0273C90.0816 71.1211 90.3062 71.168 90.5718 71.168C90.9038 71.168 91.1968 71.0977 91.4507 70.957C91.7046 70.8164 91.9058 70.6445 92.0542 70.4414C92.2066 70.2383 92.2886 70.041 92.3003 69.8496L92.7632 70.3711C92.7359 70.5352 92.6616 70.7168 92.5406 70.916C92.4195 71.1152 92.2573 71.3066 92.0542 71.4902C91.855 71.6699 91.6167 71.8203 91.3394 71.9414C91.0659 72.0586 90.7573 72.1172 90.4136 72.1172C89.9839 72.1172 89.607 72.0332 89.2827 71.8652C88.9624 71.6973 88.7124 71.4727 88.5327 71.1914C88.357 70.9062 88.2691 70.5879 88.2691 70.2363C88.2691 69.8965 88.3355 69.5977 88.4683 69.3398C88.6011 69.0781 88.7925 68.8613 89.0425 68.6895C89.2925 68.5137 89.5933 68.3809 89.9448 68.291C90.2964 68.2012 90.689 68.1562 91.1226 68.1562H92.3823ZM90.4429 64.7227L91.5796 63H92.8863L91.3159 64.7227H90.4429ZM95.008 63H96.0979V70.7695L96.0041 72H95.008V63ZM100.381 68.7773V68.9004C100.381 69.3613 100.326 69.7891 100.217 70.1836C100.108 70.5742 99.9475 70.9141 99.7366 71.2031C99.5256 71.4922 99.2678 71.7168 98.9631 71.877C98.6584 72.0371 98.3088 72.1172 97.9143 72.1172C97.512 72.1172 97.1584 72.0488 96.8538 71.9121C96.553 71.7715 96.2991 71.5703 96.092 71.3086C95.885 71.0469 95.719 70.7305 95.594 70.3594C95.4729 69.9883 95.3889 69.5703 95.342 69.1055V68.5664C95.3889 68.0977 95.4729 67.6777 95.594 67.3066C95.719 66.9355 95.885 66.6191 96.092 66.3574C96.2991 66.0918 96.553 65.8906 96.8538 65.7539C97.1545 65.6133 97.5041 65.543 97.9026 65.543C98.301 65.543 98.6545 65.6211 98.9631 65.7773C99.2717 65.9297 99.5295 66.1484 99.7366 66.4336C99.9475 66.7188 100.108 67.0605 100.217 67.459C100.326 67.8535 100.381 68.293 100.381 68.7773ZM99.2913 68.9004V68.7773C99.2913 68.4609 99.262 68.1641 99.2034 67.8867C99.1448 67.6055 99.051 67.3594 98.9221 67.1484C98.7932 66.9336 98.6233 66.7656 98.4123 66.6445C98.2014 66.5195 97.9416 66.457 97.633 66.457C97.3596 66.457 97.1213 66.5039 96.9182 66.5977C96.719 66.6914 96.5491 66.8184 96.4084 66.9785C96.2678 67.1348 96.1526 67.3145 96.0627 67.5176C95.9768 67.7168 95.9123 67.9238 95.8694 68.1387V69.5508C95.9319 69.8242 96.0334 70.0879 96.1741 70.3418C96.3186 70.5918 96.51 70.7969 96.7483 70.957C96.9905 71.1172 97.2893 71.1973 97.6448 71.1973C97.9377 71.1973 98.1877 71.1387 98.3948 71.0215C98.6057 70.9004 98.7756 70.7344 98.9045 70.5234C99.0373 70.3125 99.135 70.0684 99.1975 69.791C99.26 69.5137 99.2913 69.2168 99.2913 68.9004ZM105.52 70.916V67.6523C105.52 67.4023 105.47 67.1855 105.368 67.002C105.27 66.8145 105.122 66.6699 104.923 66.5684C104.724 66.4668 104.478 66.416 104.185 66.416C103.911 66.416 103.671 66.4629 103.464 66.5566C103.261 66.6504 103.101 66.7734 102.983 66.9258C102.87 67.0781 102.813 67.2422 102.813 67.418H101.729C101.729 67.1914 101.788 66.9668 101.905 66.7441C102.022 66.5215 102.19 66.3203 102.409 66.1406C102.632 65.957 102.897 65.8125 103.206 65.707C103.519 65.5977 103.866 65.543 104.249 65.543C104.71 65.543 105.116 65.6211 105.468 65.7773C105.823 65.9336 106.101 66.1699 106.3 66.4863C106.503 66.7988 106.604 67.1914 106.604 67.6641V70.6172C106.604 70.8281 106.622 71.0527 106.657 71.291C106.696 71.5293 106.753 71.7344 106.827 71.9062V72H105.696C105.642 71.875 105.599 71.709 105.567 71.502C105.536 71.291 105.52 71.0957 105.52 70.916ZM105.708 68.1562L105.72 68.918H104.624C104.315 68.918 104.04 68.9434 103.798 68.9941C103.556 69.041 103.353 69.1133 103.188 69.2109C103.024 69.3086 102.899 69.4316 102.813 69.5801C102.728 69.7246 102.685 69.8945 102.685 70.0898C102.685 70.2891 102.729 70.4707 102.819 70.6348C102.909 70.7988 103.044 70.9297 103.224 71.0273C103.407 71.1211 103.632 71.168 103.897 71.168C104.229 71.168 104.522 71.0977 104.776 70.957C105.03 70.8164 105.231 70.6445 105.38 70.4414C105.532 70.2383 105.614 70.041 105.626 69.8496L106.089 70.3711C106.061 70.5352 105.987 70.7168 105.866 70.916C105.745 71.1152 105.583 71.3066 105.38 71.4902C105.181 71.6699 104.942 71.8203 104.665 71.9414C104.392 72.0586 104.083 72.1172 103.739 72.1172C103.31 72.1172 102.933 72.0332 102.608 71.8652C102.288 71.6973 102.038 71.4727 101.858 71.1914C101.683 70.9062 101.595 70.5879 101.595 70.2363C101.595 69.8965 101.661 69.5977 101.794 69.3398C101.927 69.0781 102.118 68.8613 102.368 68.6895C102.618 68.5137 102.919 68.3809 103.27 68.291C103.622 68.2012 104.015 68.1562 104.448 68.1562H105.708ZM112.336 70.7695V63H113.425V72H112.429L112.336 70.7695ZM108.07 68.9004V68.7773C108.07 68.293 108.129 67.8535 108.246 67.459C108.367 67.0605 108.537 66.7188 108.756 66.4336C108.978 66.1484 109.242 65.9297 109.547 65.7773C109.855 65.6211 110.199 65.543 110.578 65.543C110.976 65.543 111.324 65.6133 111.621 65.7539C111.922 65.8906 112.175 66.0918 112.382 66.3574C112.593 66.6191 112.759 66.9355 112.881 67.3066C113.002 67.6777 113.086 68.0977 113.132 68.5664V69.1055C113.09 69.5703 113.006 69.9883 112.881 70.3594C112.759 70.7305 112.593 71.0469 112.382 71.3086C112.175 71.5703 111.922 71.7715 111.621 71.9121C111.32 72.0488 110.968 72.1172 110.566 72.1172C110.195 72.1172 109.855 72.0371 109.547 71.877C109.242 71.7168 108.978 71.4922 108.756 71.2031C108.537 70.9141 108.367 70.5742 108.246 70.1836C108.129 69.7891 108.07 69.3613 108.07 68.9004ZM109.16 68.7773V68.9004C109.16 69.2168 109.191 69.5137 109.254 69.791C109.32 70.0684 109.422 70.3125 109.558 70.5234C109.695 70.7344 109.869 70.9004 110.08 71.0215C110.291 71.1387 110.543 71.1973 110.836 71.1973C111.195 71.1973 111.49 71.1211 111.72 70.9688C111.955 70.8164 112.142 70.6152 112.283 70.3652C112.424 70.1152 112.533 69.8438 112.611 69.5508V68.1387C112.564 67.9238 112.496 67.7168 112.406 67.5176C112.32 67.3145 112.207 67.1348 112.066 66.9785C111.929 66.8184 111.759 66.6914 111.556 66.5977C111.357 66.5039 111.121 66.457 110.847 66.457C110.55 66.457 110.295 66.5195 110.08 66.6445C109.869 66.7656 109.695 66.9336 109.558 67.1484C109.422 67.3594 109.32 67.6055 109.254 67.8867C109.191 68.1641 109.16 68.4609 109.16 68.7773ZM114.856 68.9004V68.7656C114.856 68.3086 114.922 67.8848 115.055 67.4941C115.188 67.0996 115.379 66.7578 115.629 66.4688C115.879 66.1758 116.182 65.9492 116.537 65.7891C116.893 65.625 117.291 65.543 117.733 65.543C118.178 65.543 118.579 65.625 118.934 65.7891C119.293 65.9492 119.598 66.1758 119.848 66.4688C120.102 66.7578 120.295 67.0996 120.428 67.4941C120.561 67.8848 120.627 68.3086 120.627 68.7656V68.9004C120.627 69.3574 120.561 69.7812 120.428 70.1719C120.295 70.5625 120.102 70.9043 119.848 71.1973C119.598 71.4863 119.295 71.7129 118.94 71.877C118.588 72.0371 118.19 72.1172 117.745 72.1172C117.299 72.1172 116.899 72.0371 116.543 71.877C116.188 71.7129 115.883 71.4863 115.629 71.1973C115.379 70.9043 115.188 70.5625 115.055 70.1719C114.922 69.7812 114.856 69.3574 114.856 68.9004ZM115.94 68.7656V68.9004C115.94 69.2168 115.977 69.5156 116.051 69.7969C116.125 70.0742 116.237 70.3203 116.385 70.5352C116.537 70.75 116.727 70.9199 116.954 71.0449C117.18 71.166 117.444 71.2266 117.745 71.2266C118.041 71.2266 118.301 71.166 118.524 71.0449C118.75 70.9199 118.938 70.75 119.086 70.5352C119.235 70.3203 119.346 70.0742 119.42 69.7969C119.498 69.5156 119.537 69.2168 119.537 68.9004V68.7656C119.537 68.4531 119.498 68.1582 119.42 67.8809C119.346 67.5996 119.233 67.3516 119.08 67.1367C118.932 66.918 118.745 66.7461 118.518 66.6211C118.295 66.4961 118.034 66.4336 117.733 66.4336C117.436 66.4336 117.174 66.4961 116.948 66.6211C116.725 66.7461 116.537 66.918 116.385 67.1367C116.237 67.3516 116.125 67.5996 116.051 67.8809C115.977 68.1582 115.94 68.4531 115.94 68.7656Z" fill="#8D8B8B"/>
<g clip-path="url(#clip0_13_16)">
<path fill-rule="evenodd" clip-rule="evenodd" d="M13.885 32.511C14.06 32.3363 14.2701 32.2008 14.5014 32.1134C14.7327 32.026 14.9799 31.9888 15.2267 32.0042C15.4735 32.0196 15.7142 32.0873 15.9328 32.2028C16.1515 32.3183 16.3431 32.4789 16.495 32.674L18.29 34.98C18.619 35.403 18.735 35.954 18.605 36.474L18.058 38.664C18.0297 38.7774 18.0312 38.8962 18.0624 39.0089C18.0936 39.1216 18.1534 39.2243 18.236 39.307L20.693 41.764C20.7758 41.8467 20.8787 41.9066 20.9915 41.9378C21.1044 41.969 21.2234 41.9705 21.337 41.942L23.526 41.395C23.7826 41.3308 24.0504 41.3258 24.3093 41.3804C24.5681 41.435 24.8111 41.5477 25.02 41.71L27.326 43.504C28.155 44.149 28.231 45.374 27.489 46.115L26.455 47.149C25.715 47.889 24.609 48.214 23.578 47.851C20.9392 46.9225 18.5433 45.4118 16.568 43.431C14.5873 41.456 13.0766 39.0605 12.148 36.422C11.786 35.392 12.111 34.285 12.851 33.545L13.885 32.511Z" fill="#40B23D"/>
</g>
<defs>
<clipPath id="clip0_13_16">
<rect width="16" height="16" fill="white" transform="translate(12 32)"/>
</clipPath>
</defs>
</svg>
