<svg width="32" height="37" viewBox="0 0 32 37" fill="none" xmlns="http://www.w3.org/2000/svg">
<path d="M13.8857 15.1214C13.4697 15.3995 13.1126 15.7569 12.8346 16.173C12.5567 16.5892 12.3635 17.056 12.266 17.5468C12.0691 18.5381 12.274 19.567 12.8357 20.4071C13.3974 21.2473 14.2698 21.8299 15.2611 22.0268C16.2524 22.2238 17.2813 22.0188 18.1214 21.4571C18.9616 20.8954 19.5442 20.023 19.7411 19.0317C19.9381 18.0405 19.7331 17.0116 19.1714 16.1714C18.6097 15.3313 17.7373 14.7486 16.746 14.5517C15.7548 14.3548 14.7259 14.5597 13.8857 15.1214ZM24.05 10.2357C23.6786 9.86428 23.2286 9.57142 22.7357 9.37856C21.4429 8.87142 18.6214 8.89285 16.8 8.91428C16.5071 8.91428 16.2357 8.92142 16 8.92142C15.7643 8.92142 15.4857 8.92142 15.1857 8.91428C13.3643 8.89285 10.5571 8.86428 9.26429 9.37856C8.77143 9.57142 8.32857 9.86428 7.95 10.2357C7.57143 10.6071 7.28571 11.0571 7.09286 11.55C6.58571 12.8428 6.61429 15.6714 6.62857 17.4928C6.62857 17.7857 6.63571 18.0571 6.63571 18.2857C6.63571 18.5143 6.63571 18.7857 6.62857 19.0786C6.61429 20.9 6.58571 23.7286 7.09286 25.0214C7.28571 25.5143 7.57857 25.9571 7.95 26.3357C8.32143 26.7143 8.77143 27 9.26429 27.1929C10.5571 27.7 13.3786 27.6786 15.2 27.6571C15.4929 27.6571 15.7643 27.65 16 27.65C16.2357 27.65 16.5143 27.65 16.8143 27.6571C18.6357 27.6786 21.4429 27.7071 22.7357 27.1929C23.2286 27 23.6714 26.7071 24.05 26.3357C24.4286 25.9643 24.7143 25.5143 24.9071 25.0214C25.4214 23.7357 25.3929 20.9214 25.3714 19.0928C25.3714 18.7928 25.3643 18.5143 25.3643 18.2786C25.3643 18.0428 25.3643 17.7714 25.3714 17.4643C25.3929 15.6428 25.4214 12.8286 24.9071 11.5357C24.7143 11.0428 24.4214 10.6 24.05 10.2214V10.2357ZM19.2571 13.4143C20.5491 14.2781 21.445 15.6198 21.7478 17.1442C22.0505 18.6686 21.7353 20.2509 20.8714 21.5428C20.4437 22.1826 19.8941 22.7318 19.2542 23.1591C18.6142 23.5865 17.8963 23.8836 17.1415 24.0335C15.6171 24.3362 14.0348 24.021 12.7429 23.1571C11.4509 22.2942 10.5546 20.9534 10.2512 19.4297C9.94778 17.906 10.2621 16.3241 11.125 15.0321C11.9879 13.7402 13.3287 12.8439 14.8524 12.5405C16.3762 12.2371 17.958 12.5514 19.25 13.4143H19.2571ZM21.3429 13.3214C21.1214 13.1714 20.9429 12.9571 20.8357 12.7071C20.7286 12.4571 20.7071 12.1857 20.7571 11.9143C20.8071 11.6428 20.9429 11.4071 21.1286 11.2143C21.3143 11.0214 21.5643 10.8928 21.8286 10.8428C22.0929 10.7928 22.3714 10.8143 22.6214 10.9214C22.8714 11.0286 23.0857 11.2 23.2357 11.4214C23.3857 11.6428 23.4643 11.9071 23.4643 12.1786C23.4643 12.3571 23.4286 12.5357 23.3643 12.7C23.3 12.8643 23.1929 13.0143 23.0714 13.1428C22.95 13.2714 22.7929 13.3714 22.6286 13.4428C22.4643 13.5143 22.2857 13.55 22.1071 13.55C21.8357 13.55 21.5714 13.4714 21.35 13.3214H21.3429ZM32 6.85713C32 4.33571 29.95 2.28571 27.4286 2.28571H4.57143C2.05 2.28571 0 4.33571 0 6.85713V29.7143C0 32.2357 2.05 34.2857 4.57143 34.2857H27.4286C29.95 34.2857 32 32.2357 32 29.7143V6.85713ZM25.5 27.7857C24.1643 29.1214 22.5429 29.5428 20.7143 29.6357C18.8286 29.7428 13.1714 29.7428 11.2857 29.6357C9.45714 29.5428 7.83571 29.1214 6.5 27.7857C5.16429 26.45 4.74286 24.8286 4.65714 23C4.55 21.1143 4.55 15.4571 4.65714 13.5714C4.75 11.7428 5.16429 10.1214 6.5 8.78571C7.83571 7.44999 9.46429 7.02856 11.2857 6.94285C13.1714 6.83571 18.8286 6.83571 20.7143 6.94285C22.5429 7.03571 24.1643 7.44999 25.5 8.78571C26.8357 10.1214 27.2571 11.7428 27.3429 13.5714C27.45 15.45 27.45 21.1 27.3429 22.9928C27.25 24.8214 26.8357 26.4428 25.5 27.7786V27.7857Z" fill="white"/>
</svg>
