<svg width="32" height="37" viewBox="0 0 32 37" fill="none" xmlns="http://www.w3.org/2000/svg">
<path d="M6.57857 18.1857C6.57857 19.9643 7.07857 21.7 8.02143 23.1929L8.24286 23.55L7.29286 27.0214L10.8571 26.0857L11.2 26.2928C12.6429 27.15 14.3 27.6071 15.9929 27.6071H16C21.1857 27.6071 25.5214 23.3857 25.5214 18.1928C25.5214 15.6786 24.4357 13.3143 22.6571 11.5357C20.8714 9.74999 18.5143 8.77142 16 8.77142C10.8071 8.77142 6.58571 12.9928 6.57857 18.1857ZM19.6286 23.5714C18.7286 23.7071 18.0286 23.6357 16.2357 22.8643C13.6071 21.7286 11.8214 19.1857 11.4571 18.6714C11.4286 18.6286 11.4071 18.6071 11.4 18.5928C11.2571 18.4071 10.2429 17.0571 10.2429 15.6643C10.2429 14.35 10.8857 13.6714 11.1857 13.3571C11.2071 13.3357 11.2214 13.3214 11.2357 13.3C11.4929 13.0143 11.8 12.9428 11.9929 12.9428C12.1786 12.9428 12.3714 12.9428 12.5357 12.95C12.5571 12.95 12.5714 12.95 12.5929 12.95C12.7571 12.95 12.9643 12.95 13.1714 13.4357C13.2571 13.6428 13.3857 13.9571 13.5214 14.2786C13.7571 14.85 14 15.4428 14.0429 15.5357C14.1143 15.6786 14.1643 15.8428 14.0643 16.0286C13.8214 16.5143 13.5714 16.7714 13.4 16.9571C13.1786 17.1857 13.0786 17.2928 13.2357 17.5714C14.3286 19.45 15.4214 20.1 17.0857 20.9357C17.3714 21.0786 17.5357 21.0571 17.7 20.8643C17.8643 20.6786 18.4071 20.0357 18.5929 19.7571C18.7786 19.4714 18.9714 19.5214 19.2286 19.6143C19.4857 19.7071 20.8786 20.3928 21.1643 20.5357C21.2214 20.5643 21.2714 20.5857 21.3143 20.6071C21.5143 20.7071 21.65 20.7714 21.7071 20.8643C21.7714 21 21.7714 21.5714 21.5357 22.2286C21.3 22.8929 20.1714 23.4928 19.6286 23.5714ZM32 6.85713C32 4.33571 29.95 2.28571 27.4286 2.28571H4.57143C2.05 2.28571 0 4.33571 0 6.85713V29.7143C0 32.2357 2.05 34.2857 4.57143 34.2857H27.4286C29.95 34.2857 32 32.2357 32 29.7143V6.85713ZM10.5786 28.1357L4.57143 29.7143L6.17857 23.8428C5.18571 22.1286 4.66429 20.1786 4.66429 18.1786C4.67143 11.9357 9.75 6.85713 15.9929 6.85713C19.0214 6.85713 21.8643 8.03571 24.0071 10.1786C26.1429 12.3214 27.4286 15.1643 27.4286 18.1928C27.4286 24.4357 22.2357 29.5143 15.9929 29.5143C14.0929 29.5143 12.2286 29.0357 10.5786 28.1357Z" fill="white"/>
</svg>
