<svg width="24" height="24" viewBox="0 0 24 24" fill="none" xmlns="http://www.w3.org/2000/svg">
<path d="M2 22C2 20.15 2.24583 18.5708 2.7375 17.2625C3.22917 15.9542 3.85833 14.8667 4.625 14C5.39167 13.1333 6.25 12.4625 7.2 11.9875C8.15 11.5125 9.08333 11.1833 10 11V8C7.71667 7.71667 5.8125 7.0125 4.2875 5.8875C2.7625 4.7625 2 3.46667 2 2H22C22 3.46667 21.2375 4.7625 19.7125 5.8875C18.1875 7.0125 16.2833 7.71667 14 8V11C14.9167 11.1833 15.85 11.5125 16.8 11.9875C17.75 12.4625 18.6083 13.1333 19.375 14C20.1417 14.8667 20.7708 15.9542 21.2625 17.2625C21.7542 18.5708 22 20.15 22 22H16V20H19.875C19.575 17.4667 18.6292 15.6333 17.0375 14.5C15.4458 13.3667 13.7667 12.8 12 12.8C10.2333 12.8 8.55417 13.3667 6.9625 14.5C5.37083 15.6333 4.425 17.4667 4.125 20H8V22H2ZM12 6.125C13.5167 6.125 14.8667 5.92083 16.05 5.5125C17.2333 5.10417 18.175 4.6 18.875 4H5.125C5.825 4.6 6.76667 5.10417 7.95 5.5125C9.13333 5.92083 10.4833 6.125 12 6.125ZM12 22C11.45 22 10.9792 21.8042 10.5875 21.4125C10.1958 21.0208 10 20.55 10 20C10 19.7167 10.0542 19.4583 10.1625 19.225C10.2708 18.9917 10.4167 18.7833 10.6 18.6C11 18.2 11.675 17.7792 12.625 17.3375C13.575 16.8958 14.7 16.45 16 16C15.5333 17.3 15.0833 18.425 14.65 19.375C14.2167 20.325 13.8 21 13.4 21.4C13.2167 21.5833 13.0083 21.7292 12.775 21.8375C12.5417 21.9458 12.2833 22 12 22Z" fill="#020441"/>
</svg>
