<svg width="24" height="24" viewBox="0 0 24 24" fill="none" xmlns="http://www.w3.org/2000/svg">
<path d="M5.4 6H18.6L17.75 5H6.25L5.4 6ZM10 12.75L12 11.75L14 12.75V8H10V12.75ZM5 21C4.45 21 3.97917 20.8042 3.5875 20.4125C3.19583 20.0208 3 19.55 3 19V6.525C3 6.29167 3.0375 6.06667 3.1125 5.85C3.1875 5.63333 3.3 5.43333 3.45 5.25L4.7 3.725C4.88333 3.49167 5.1125 3.3125 5.3875 3.1875C5.6625 3.0625 5.95 3 6.25 3H17.75C18.05 3 18.3375 3.0625 18.6125 3.1875C18.8875 3.3125 19.1167 3.49167 19.3 3.725L20.55 5.25C20.7 5.43333 20.8125 5.63333 20.8875 5.85C20.9625 6.06667 21 6.29167 21 6.525V10C20.65 10 20.3042 10.025 19.9625 10.075C19.6208 10.125 19.3 10.225 19 10.375V8H16V13.125L14.075 15.05L12 14L8 16V8H5V19H12V21H5ZM14 21V17.925L19.525 12.425C19.675 12.275 19.8417 12.1667 20.025 12.1C20.2083 12.0333 20.3917 12 20.575 12C20.775 12 20.9667 12.0375 21.15 12.1125C21.3333 12.1875 21.5 12.3 21.65 12.45L22.575 13.375C22.7083 13.525 22.8125 13.6917 22.8875 13.875C22.9625 14.0583 23 14.2417 23 14.425C23 14.6083 22.9667 14.7958 22.9 14.9875C22.8333 15.1792 22.725 15.35 22.575 15.5L17.075 21H14ZM15.5 19.5H16.45L19.475 16.45L19.025 15.975L18.55 15.525L15.5 18.55V19.5ZM19.025 15.975L18.55 15.525L19.475 16.45L19.025 15.975Z" fill="#020441"/>
</svg>
