<svg width="60" height="60" viewBox="0 0 60 60" fill="none" xmlns="http://www.w3.org/2000/svg">
<path d="M26.25 43.75H33.75V37.5H40V30H33.75V23.75H26.25V30H20V37.5H26.25V43.75ZM17.5 52.5C16.125 52.5 14.9479 52.0104 13.9688 51.0312C12.9896 50.0521 12.5 48.875 12.5 47.5V20C12.5 18.625 12.9896 17.4479 13.9688 16.4688C14.9479 15.4896 16.125 15 17.5 15H42.5C43.875 15 45.0521 15.4896 46.0312 16.4688C47.0104 17.4479 47.5 18.625 47.5 20V47.5C47.5 48.875 47.0104 50.0521 46.0312 51.0312C45.0521 52.0104 43.875 52.5 42.5 52.5H17.5ZM17.5 47.5H42.5V20H17.5V47.5ZM15 12.5V7.5H45V12.5H15Z" fill="#020441"/>
</svg>
