<svg width="60" height="60" viewBox="0 0 60 60" fill="none" xmlns="http://www.w3.org/2000/svg">
<path d="M17.5 55C16.125 55 14.9479 54.5104 13.9688 53.5312C12.9896 52.5521 12.5 51.375 12.5 50C12.5 48.625 12.9896 47.4479 13.9688 46.4688C14.9479 45.4896 16.125 45 17.5 45C18.875 45 20.0521 45.4896 21.0312 46.4688C22.0104 47.4479 22.5 48.625 22.5 50C22.5 51.375 22.0104 52.5521 21.0312 53.5312C20.0521 54.5104 18.875 55 17.5 55ZM42.5 55C41.125 55 39.9479 54.5104 38.9688 53.5312C37.9896 52.5521 37.5 51.375 37.5 50C37.5 48.625 37.9896 47.4479 38.9688 46.4688C39.9479 45.4896 41.125 45 42.5 45C43.875 45 45.0521 45.4896 46.0312 46.4688C47.0104 47.4479 47.5 48.625 47.5 50C47.5 51.375 47.0104 52.5521 46.0312 53.5312C45.0521 54.5104 43.875 55 42.5 55ZM15.375 15L21.375 27.5H38.875L45.75 15H15.375ZM13 10H49.875C50.8333 10 51.5625 10.4271 52.0625 11.2812C52.5625 12.1354 52.5833 13 52.125 13.875L43.25 29.875C42.7917 30.7083 42.1771 31.3542 41.4062 31.8125C40.6354 32.2708 39.7917 32.5 38.875 32.5H20.25L17.5 37.5H47.5V42.5H17.5C15.625 42.5 14.2083 41.6771 13.25 40.0312C12.2917 38.3854 12.25 36.75 13.125 35.125L16.5 29L7.5 10H2.5V5H10.625L13 10Z" fill="#020441"/>
</svg>
