<svg width="40" height="28" viewBox="0 0 40 28" fill="none" xmlns="http://www.w3.org/2000/svg">
<path d="M28.9103 17.1034C28.9103 15.5218 28.3586 14.2345 27.2552 13.2414C25.2322 11.4759 24.2207 9.48966 24.2207 7.28276C24.2207 5.25977 24.9379 3.53103 26.3724 2.09655C27.7701 0.698851 29.3517 0 31.1172 0C32.8828 0 34.2989 0.331034 35.3655 0.993103C36.469 1.65517 37.3517 2.51954 38.0138 3.58621C39.3379 5.57241 40 8.05517 40 11.0345C40 16.7356 38.3816 21.2782 35.1448 24.6621C33.1586 26.5747 31.5218 27.531 30.2345 27.531C28.9471 27.531 27.954 27.1448 27.2552 26.3724C26.5563 25.6 26.2069 24.7908 26.2069 23.9448C26.2069 23.0989 26.3356 22.4184 26.5931 21.9034C26.8874 21.3885 27.2 20.892 27.531 20.4138C28.4506 19.1632 28.9103 18.0598 28.9103 17.1034ZM4.68966 17.1034C4.68966 15.5218 4.13793 14.2345 3.03448 13.2414C1.01149 11.4759 0 9.48966 0 7.28276C0 5.25977 0.717241 3.53103 2.15172 2.09655C3.54943 0.698851 5.13103 0 6.89655 0C8.66207 0 10.0782 0.331034 11.1448 0.993103C12.2483 1.65517 13.1494 2.51954 13.8483 3.58621C15.1356 5.57241 15.7793 8.05517 15.7793 11.0345C15.7793 16.7356 14.1609 21.2782 10.9241 24.6621C8.93793 26.5747 7.30115 27.531 6.01379 27.531C4.72644 27.531 3.73333 27.1448 3.03448 26.3724C2.33563 25.6 1.98621 24.7908 1.98621 23.9448C1.98621 23.0989 2.11494 22.4184 2.37241 21.9034C2.66667 21.3885 2.9977 20.892 3.36552 20.4138C4.24828 19.1632 4.68966 18.0598 4.68966 17.1034Z" fill="#0438AC"/>
</svg>
