<svg width="40" height="28" viewBox="0 0 40 28" fill="none" xmlns="http://www.w3.org/2000/svg">
<path d="M11.0897 10.4276C11.0897 12.0092 11.6414 13.2966 12.7448 14.2897C14.7678 16.0552 15.7793 18.0414 15.7793 20.2483C15.7793 22.2713 15.0621 24 13.6276 25.4345C12.2299 26.8322 10.6483 27.531 8.88276 27.531C7.11724 27.531 5.68276 27.2 4.57931 26.5379C3.51264 25.8759 2.62989 25.0299 1.93103 24C0.643678 21.977 0 19.4759 0 16.4966C0 10.7954 1.61839 6.25287 4.85517 2.86897C6.84138 0.956322 8.47816 0 9.76552 0C11.0529 0 12.046 0.386207 12.7448 1.15862C13.4437 1.93103 13.7931 2.74023 13.7931 3.58621C13.7931 4.43218 13.646 5.11264 13.3517 5.62759C13.0943 6.14253 12.7816 6.63908 12.4138 7.11724C11.531 8.36782 11.0897 9.47126 11.0897 10.4276ZM35.3103 10.4276C35.3103 12.0092 35.8621 13.2966 36.9655 14.2897C38.9885 16.0552 40 18.0414 40 20.2483C40 22.2713 39.2828 24 37.8483 25.4345C36.4506 26.8322 34.869 27.531 33.1035 27.531C31.3379 27.531 29.9034 27.2 28.8 26.5379C27.7333 25.8759 26.869 25.0299 26.2069 24C24.8828 21.977 24.2207 19.4759 24.2207 16.4966C24.2207 10.7954 25.8391 6.25287 29.0759 2.86897C31.0621 0.956322 32.6989 0 33.9862 0C35.2736 0 36.2667 0.386207 36.9655 1.15862C37.6644 1.93103 38.0138 2.74023 38.0138 3.58621C38.0138 4.43218 37.8667 5.11264 37.5724 5.62759C37.3149 6.14253 37.0207 6.63908 36.6897 7.11724C35.7701 8.36782 35.3103 9.47126 35.3103 10.4276Z" fill="#0438AC"/>
</svg>
